<svg class="dn" height="0" version="1.1" width="0"
  xmlns="http://www.w3.org/2000/svg">
  <defs>
    <g id="hpa-profile">
      <svg version="1.1" id="Camada_1" fill="#48494C" xmlns="http://www.w3.org/2000/svg" xmlns:xlink="http://www.w3.org/1999/xlink" x="0px" y="0px"
        viewBox="0 0 30.9 30.4" style="enable-background:new 0 0 30.9 30.4;" xml:space="preserve">
        <path class="st0" d="M25.2,16.1l-6.1-1.5c3.6-1.9,4.9-6.5,3-10.1s-6.5-4.9-10.1-3C8.5,3.6,7.1,7.9,9,11.5c0.8,1.3,1.7,2.3,3,3
          l-6.3,1.5C2,17-0.4,20.5,0.3,23.9c0.8,3,3.4,5.1,6.6,5.3l1.1,0.2c4.7,0.6,9.7,0.6,14.6,0l1.1-0.2c3-0.2,5.7-2.5,6.6-5.3
          C31.3,20.5,29,17,25.2,16.1z M9.8,8.1c0-3,2.5-5.7,5.7-5.7s5.7,2.5,5.7,5.7c0,3-2.5,5.7-5.7,5.7l0,0C12.5,13.6,9.8,11.2,9.8,8.1
          L9.8,8.1z M28.8,23.5c-0.8,2.3-2.7,4-5.1,4l-1.1,0.2c-4.7,0.6-9.5,0.6-14.2,0l-1.1-0.2c-2.5-0.2-4.4-1.7-5.1-4
          c-0.6-2.5,1.3-4.9,4.2-5.7l7.4-1.9c1.1-0.4,2.3-0.4,3.4,0l7.4,1.9C27.7,18.6,29.4,21,28.8,23.5L28.8,23.5z"/>
      </svg>
    </g>

    <g id="hpa-cart">
      <svg version="1.1" id="Camada_1" fill="#48494C" xmlns="http://www.w3.org/2000/svg" xmlns:xlink="http://www.w3.org/1999/xlink" x="0px" y="0px"
        viewBox="0 0 24.2 21.2" style="enable-background:new 0 0 24.2 21.2;" xml:space="preserve">
        <path class="st0" d="M22.9,6.3h-2.4l-3.4-5.9c-0.2-0.3-0.6-0.4-0.9-0.2c-0.3,0.2-0.4,0.6-0.2,0.9l3,5.3H5.2l3-5.3
          C8.4,0.8,8.3,0.4,8,0.2C7.7,0,7.3,0.1,7.1,0.4L3.7,6.3H1.3c-0.7,0-1.2,0.5-1.2,1.2v2.2c0,0.7,0.5,1.2,1.2,1.2h0.4L3,18.7
          c0.3,1.5,1.7,2.5,3.2,2.4H18c1.5,0.1,2.9-1,3.2-2.4l1.3-7.8h0.4c0.7,0,1.2-0.5,1.2-1.2V7.5C24.1,6.9,23.6,6.3,22.9,6.3z M19.9,18.5
          c-0.2,0.8-1,1.4-1.9,1.3H6.2c-0.9,0.1-1.7-0.5-1.9-1.3L3,10.9h18.2L19.9,18.5z M22.8,9.6H1.4v-2h21.4L22.8,9.6z"/>
        <path class="st0" d="M6.8,17.7c0.3,0,0.6-0.2,0.6-0.6v-2.9c0-0.3-0.2-0.6-0.6-0.6s-0.6,0.2-0.6,0.6v2.9C6.3,17.5,6.5,17.7,6.8,17.7z"/>
        <path class="st0" d="M12.1,17.7c0.3,0,0.6-0.2,0.6-0.6l0,0v-2.9c0-0.3-0.2-0.6-0.6-0.6s-0.6,0.2-0.6,0.6v2.9C11.5,17.5,11.8,17.7,12.1,17.7z"/>
        <path class="st0" d="M17.3,17.7c0.3,0,0.6-0.2,0.6-0.6l0,0v-2.9c0-0.3-0.2-0.6-0.6-0.6s-0.6,0.2-0.6,0.6v2.9C16.8,17.5,17,17.7,17.3,17.7z"/>
      </svg>
    </g>

    <g id="hpa-search">
      <svg version="1.1" id="Camada_1" fill="#48494C" xmlns="http://www.w3.org/2000/svg" xmlns:xlink="http://www.w3.org/1999/xlink" x="0px" y="0px"
        viewBox="0 0 28.5 29.2" style="enable-background:new 0 0 28.5 29.2;" xml:space="preserve">
        <path class="st0" d="M28.1,26.9l-5.6-5.6c-0.3-0.3-0.6-0.4-1-0.4l-1.8-1.8c4.3-4.6,4-11.8-0.6-16.1C14.6-1.2,7.4-1,3.1,3.7
          c-4.3,4.6-4,11.8,0.6,16.1c4.1,3.8,10.4,4.1,14.8,0.7l1.8,1.8c0,0.4,0.1,0.7,0.4,1l5.6,5.6c0.6,0.5,1.4,0.4,1.9-0.1
          C28.5,28.2,28.5,27.4,28.1,26.9L28.1,26.9z M1.9,11.4c0-5.3,4.3-9.6,9.6-9.6S21,6.2,21,11.4c0,5.3-4.3,9.6-9.6,9.6l0,0
          C6.2,21,1.9,16.7,1.9,11.4z"/>
      </svg>
    </g>

    <g id="hpa-delete">
      <svg version="1.1" id="Camada_1" stroke="#FF3333" xmlns="http://www.w3.org/2000/svg" xmlns:xlink="http://www.w3.org/1999/xlink" x="0px" y="0px"
        viewBox="0 0 26.9 26.9" style="enable-background:new 0 0 26.9 26.9;" xml:space="preserve">
        <g transform="translate(1.414 1.414)">
          <path class="st0" d="M0,0l24.1,24.1" stroke-width="2" />
          <path class="st0" d="M0,24.1L24.1,0" stroke-width="2" />
        </g>
      </svg>
    </g>

    <g id="mpa-filter-settings">
      <svg xmlns="http://www.w3.org/2000/svg" width="16" height="16" viewBox="0 0 26.599 29.169" fill="#FF3333">
        <g transform="translate(-155 -612.125)">
          <path class="a" d="M170.614,641.294a3.04,3.04,0,0,1-1.642-.481l-4.627-2.959a3.032,3.032,0,0,1-1.4-2.566v-7.051a.426.426,0,0,0-.153-.33l-6.7-5.639a3.042,3.042,0,0,1-1.085-2.33v-4.768a3.05,3.05,0,0,1,3.046-3.046h20.507a3.05,3.05,0,0,1,3.046,3.046v4.768a3.042,3.042,0,0,1-1.085,2.33l-6.7,5.639a.426.426,0,0,0-.154.33v10.01a3.043,3.043,0,0,1-3.045,3.046Zm-12.568-26.553a.431.431,0,0,0-.43.43v4.768a.429.429,0,0,0,.154.329l6.7,5.639a3.041,3.041,0,0,1,1.085,2.331v7.051a.429.429,0,0,0,.2.362l4.628,2.959a.429.429,0,0,0,.661-.362v-10.01a3.041,3.041,0,0,1,1.085-2.331l6.7-5.639a.429.429,0,0,0,.153-.329v-4.768a.431.431,0,0,0-.43-.43Z"/>
        </g>
      </svg>
     </g>


    <g id="mpa-gallery">
      <svg xmlns="http://www.w3.org/2000/svg" width="16" height="16" viewBox="0 0 29.287 29.287" fill="#FF3333">
        <g transform="translate(-96 -710)">
          <g transform="translate(96 710)">
            <path class="a" d="M105.8,722.813h-6.78A3.021,3.021,0,0,1,96,719.8v-6.78A3.021,3.021,0,0,1,99.017,710h6.78a3.021,3.021,0,0,1,3.017,3.017v6.78A3.021,3.021,0,0,1,105.8,722.813Zm-6.78-10.983a1.188,1.188,0,0,0-1.186,1.186v6.78a1.188,1.188,0,0,0,1.186,1.186h6.78a1.188,1.188,0,0,0,1.186-1.186v-6.78a1.188,1.188,0,0,0-1.186-1.186Z" transform="translate(-96 -710)"/></g><g transform="translate(96 726.474)"><path class="a" d="M105.8,740.813h-6.78A3.021,3.021,0,0,1,96,737.8v-6.78A3.021,3.021,0,0,1,99.017,728h6.78a3.021,3.021,0,0,1,3.017,3.017v6.78A3.021,3.021,0,0,1,105.8,740.813Zm-6.78-10.983a1.188,1.188,0,0,0-1.186,1.186v6.78a1.188,1.188,0,0,0,1.186,1.186h6.78a1.188,1.188,0,0,0,1.186-1.186v-6.78a1.188,1.188,0,0,0-1.186-1.186Z" transform="translate(-96 -728)"/></g><g transform="translate(112.474 710)"><path class="a" d="M123.8,722.813h-6.78A3.021,3.021,0,0,1,114,719.8v-6.78A3.021,3.021,0,0,1,117.017,710h6.78a3.021,3.021,0,0,1,3.017,3.017v6.78A3.021,3.021,0,0,1,123.8,722.813Zm-6.78-10.983a1.188,1.188,0,0,0-1.186,1.186v6.78a1.188,1.188,0,0,0,1.186,1.186h6.78a1.188,1.188,0,0,0,1.186-1.186v-6.78a1.188,1.188,0,0,0-1.186-1.186Z" transform="translate(-114 -710)"/></g><g transform="translate(112.474 726.474)"><path class="a" d="M123.8,740.813h-6.78A3.021,3.021,0,0,1,114,737.8v-6.78A3.021,3.021,0,0,1,117.017,728h6.78a3.021,3.021,0,0,1,3.017,3.017v6.78A3.021,3.021,0,0,1,123.8,740.813Zm-6.78-10.983a1.188,1.188,0,0,0-1.186,1.186v6.78a1.188,1.188,0,0,0,1.186,1.186h6.78a1.188,1.188,0,0,0,1.186-1.186v-6.78a1.188,1.188,0,0,0-1.186-1.186Z" transform="translate(-114 -728)"/>
          </g>
        </g>
      </svg>
    </g>

  <g id="mpa-list-items">
    <svg xmlns="http://www.w3.org/2000/svg" width="16" height="16" viewBox="0 0 29 29">
      <g id="Grupo_590" data-name="Grupo 590" transform="translate(-611 -863)">
        <g id="Ret창ngulo_384" data-name="Ret창ngulo 384" transform="translate(611 863)" fill="none" stroke="#FF3333" stroke-width="2">
          <rect width="29" height="13" rx="3" stroke="none"/>
          <rect x="1" y="1" width="27" height="11" rx="2" fill="none"/>
        </g>
        <g id="Ret창ngulo_385" data-name="Ret창ngulo 385" transform="translate(611 879)" fill="none" stroke="#FF3333" stroke-width="2">
          <rect width="29" height="13" rx="3" stroke="none"/>
          <rect x="1" y="1" width="27" height="11" rx="2" fill="none"/>
        </g>
      </g>
    </svg>
  </g>

    <g id="nav-caret--right">
      <svg version="1.1" id="Camada_1" xmlns="http://www.w3.org/2000/svg" xmlns:xlink="http://www.w3.org/1999/xlink" x="0px" y="0px"
          viewBox="0 0 14.4 26.9" style="enable-background:new 0 0 14.4 26.9;" xml:space="preserve">
      <path class="st0" d="M1.4,25.5l12-12l-12-12" stroke="#48494C" stroke-width="2" stroke-linecap="round" stroke-linejoin="round" />
      </svg>
    </g>

    <g id="nav-caret--left">
      <svg version="1.1" id="Camada_1" xmlns="http://www.w3.org/2000/svg" xmlns:xlink="http://www.w3.org/1999/xlink" x="0px" y="0px"
          viewBox="0 0 14.4 26.9" style="enable-background:new 0 0 14.4 26.9;" xml:space="preserve">
      <path class="st0" d="M13,1.4l-12,12l12,12" stroke="#48494C" stroke-width="2" stroke-linecap="round" stroke-linejoin="round" />
      </svg>
    </g>

    <g id="hpa-hamburguer-menu">
      <svg xmlns="http://www.w3.org/2000/svg" x="0px" y="0px" stroke="#48494c" stroke-linecap="round" stroke-width="1.4" viewBox="0 0 29.4 21.4">
        <g transform="translate(-19.8 -21.8)">
          <line class="a" x2="28" transform="translate(20.5 22.5)"/>
          <line class="a" x2="28" transform="translate(20.5 32.5)"/>
          <line class="a" x2="28" transform="translate(20.5 42.5)"/>
        </g>
      </svg>
    </g>
  </defs>
</svg>


