<svg xmlns="http://www.w3.org/2000/svg" width="64" height="64" viewBox="0 0 64 64"><defs><style>.a{fill:#ffa8b3;}.b{fill:#fff;}</style></defs><g transform="translate(-2115 741)"><circle class="a" cx="32" cy="32" r="32" transform="translate(2115 -741)"/><g transform="translate(0.433 59)"><path class="b" d="M8.944,13.888a1.236,1.236,0,0,1-1.236-1.236V7.546L6.472,8.37v4.283a1.236,1.236,0,1,1-2.472,0V7.708A1.235,1.235,0,0,1,4.55,6.68L8.259,4.208A1.236,1.236,0,0,1,10.18,5.236v7.416A1.236,1.236,0,0,1,8.944,13.888Z" transform="translate(2134.039 -787)"/><path class="b" d="M10.416,17.18H4.236A1.236,1.236,0,0,1,3,15.944V12.236A1.236,1.236,0,0,1,4.236,11h6.18a1.236,1.236,0,0,1,1.236,1.236v3.708A1.236,1.236,0,0,1,10.416,17.18ZM5.472,14.708H9.18V13.472H5.472Z" transform="translate(2133.803 -785.348)"/><path class="b" d="M16.59,28.737a3.093,3.093,0,0,1-3.09-3.09l-.036-13.163A1.236,1.236,0,0,1,14.7,11.248h3.708a1.236,1.236,0,0,1,1.236,1.236l.036,13.163A3.093,3.093,0,0,1,16.59,28.737ZM15.936,13.72l.036,11.927a.618.618,0,1,0,1.236,0L17.172,13.72Z" transform="translate(2136.281 -781.876)"/><path class="b" d="M18.444,13.472H14.736a1.236,1.236,0,0,1,0-2.472h3.708a1.236,1.236,0,0,1,0,2.472Z" transform="translate(2136.281 -784.73)"/><path class="b" d="M18.916,12.652H15.208a1.236,1.236,0,0,1-1.028-.55L11.708,8.394a1.236,1.236,0,0,1,.155-1.56l1.161-1.161a5.712,5.712,0,0,1,8.078,0l1.161,1.161a1.236,1.236,0,0,1,.155,1.56L19.945,12.1A1.236,1.236,0,0,1,18.916,12.652ZM15.87,10.18h2.385L19.8,7.866l-.444-.445a3.354,3.354,0,0,0-4.582,0l-.444.445Z" transform="translate(2135.809 -787)"/><path class="b" d="M11.888,31.3H3.236A1.236,1.236,0,0,1,2,30.068V15.236A1.236,1.236,0,0,1,3.236,14h8.652a1.236,1.236,0,0,1,1.236,1.236V30.068A1.236,1.236,0,0,1,11.888,31.3ZM4.472,28.832h6.18V16.472H4.472Z" transform="translate(2133.567 -784.64)"/></g></g></svg>