<?xml version="1.0" encoding="utf-8"?>
<!-- Generator: Adobe Illustrator 23.0.2, SVG Export Plug-In . SVG Version: 6.00 Build 0)  -->
<svg version="1.1" id="Camada_1" xmlns="http://www.w3.org/2000/svg" xmlns:xlink="http://www.w3.org/1999/xlink" x="0px" y="0px"
	 viewBox="0 0 28.5 29.2" style="enable-background:new 0 0 28.5 29.2;" xml:space="preserve">
<style type="text/css">
	.st0{fill:#48494C;}
</style>
<path class="st0" d="M28.1,26.9l-5.6-5.6c-0.3-0.3-0.6-0.4-1-0.4l-1.8-1.8c4.3-4.6,4-11.8-0.6-16.1C14.6-1.2,7.4-1,3.1,3.7
	c-4.3,4.6-4,11.8,0.6,16.1c4.1,3.8,10.4,4.1,14.8,0.7l1.8,1.8c0,0.4,0.1,0.7,0.4,1l5.6,5.6c0.6,0.5,1.4,0.4,1.9-0.1
	C28.5,28.2,28.5,27.4,28.1,26.9L28.1,26.9z M1.9,11.4c0-5.3,4.3-9.6,9.6-9.6S21,6.2,21,11.4c0,5.3-4.3,9.6-9.6,9.6l0,0
	C6.2,21,1.9,16.7,1.9,11.4z"/>
</svg>
