<svg xmlns="http://www.w3.org/2000/svg" width="26.095" height="29.17" viewBox="0 0 26.095 29.17"><defs><style>.a{fill:#48494c;}</style></defs><path class="a" d="M184.885,364.1a2.31,2.31,0,0,0-2.127-1.374h-4.991a.437.437,0,0,1-.37-.193.483.483,0,0,1-.031-.471l1.5-4.9A2.333,2.333,0,0,0,176.687,354H166.425a2.325,2.325,0,0,0-2.164,1.46l-5.089,12.6a2.334,2.334,0,0,0,2.164,3.208h6.285a.45.45,0,0,1,.433.566l-2.263,8.381a2.3,2.3,0,0,0,1.149,2.665,2.373,2.373,0,0,0,1.125.288,2.27,2.27,0,0,0,1.713-.781L184.51,366.6A2.31,2.31,0,0,0,184.885,364.1Zm-1.771,1.237-14.732,15.79a.449.449,0,0,1-.77-.413l2.263-8.381a2.335,2.335,0,0,0-2.253-2.943h-6.285a.448.448,0,0,1-.417-.616l5.09-12.6a.446.446,0,0,1,.416-.281h10.262a.439.439,0,0,1,.37.194.483.483,0,0,1,.03.471l-1.5,4.895a2.334,2.334,0,0,0,2.183,3.162h4.991a.434.434,0,0,1,.408.265A.424.424,0,0,1,183.114,365.332Z" transform="translate(-159.001 -354)"/></svg>