<svg xmlns="http://www.w3.org/2000/svg" width="26" height="29.409" viewBox="0 0 26 29.409">
  <path id="Caminho_396" data-name="Caminho 396" d="M172.639,168.245l-10.278-5.935c-.043-.024-.09-.033-.134-.055l-.627-.373a1.172,1.172,0,0,0-1.2,0l-.628.373c-.044.022-.091.031-.134.055l-10.278,5.935A2.721,2.721,0,0,0,148,170.6V182.47a2.721,2.721,0,0,0,1.361,2.357l10.278,5.934a2.72,2.72,0,0,0,2.722,0l10.278-5.934A2.721,2.721,0,0,0,174,182.47V170.6A2.721,2.721,0,0,0,172.639,168.245ZM161,174.9l-9.481-5.643,4.1-2.44,9.455,5.658Zm5.832-3.471-9.454-5.659,3.3-1.962a.94.94,0,0,1,.326-.067.917.917,0,0,1,.326.067l9.155,5.449Zm-16.571,11.834a.925.925,0,0,1-.461-.8V170.6a.921.921,0,0,1,.035-.247L160,176.4v12.486Zm21.939-.8a.925.925,0,0,1-.461.8L169,184.85V179.8l-2,1.2v5l-5,2.887V176.4l10.165-6.05a.921.921,0,0,1,.035.247Z" transform="translate(-148 -161.717)" fill="#48494c"/>
</svg>
