<svg xmlns="http://www.w3.org/2000/svg" width="26.599" height="29.169" viewBox="0 0 26.599 29.169"><defs><style>.a{fill:#48494c;}</style></defs><g transform="translate(-155 -612.125)"><path class="a" d="M170.614,641.294a3.04,3.04,0,0,1-1.642-.481l-4.627-2.959a3.032,3.032,0,0,1-1.4-2.566v-7.051a.426.426,0,0,0-.153-.33l-6.7-5.639a3.042,3.042,0,0,1-1.085-2.33v-4.768a3.05,3.05,0,0,1,3.046-3.046h20.507a3.05,3.05,0,0,1,3.046,3.046v4.768a3.042,3.042,0,0,1-1.085,2.33l-6.7,5.639a.426.426,0,0,0-.154.33v10.01a3.043,3.043,0,0,1-3.045,3.046Zm-12.568-26.553a.431.431,0,0,0-.43.43v4.768a.429.429,0,0,0,.154.329l6.7,5.639a3.041,3.041,0,0,1,1.085,2.331v7.051a.429.429,0,0,0,.2.362l4.628,2.959a.429.429,0,0,0,.661-.362v-10.01a3.041,3.041,0,0,1,1.085-2.331l6.7-5.639a.429.429,0,0,0,.153-.329v-4.768a.431.431,0,0,0-.43-.43Z"/></g></svg>