<svg width="34" height="30" viewBox="0 0 34 30" fill="none" xmlns="http://www.w3.org/2000/svg">
<g clip-path="url(#clip0)">
<path d="M33.312 15.455L30.16 9.54501C29.8771 9.01288 29.4546 8.56787 28.9379 8.25778C28.4211 7.9477 27.8297 7.78425 27.227 7.785H21.386V3.32501C21.3855 2.4435 21.0351 1.59824 20.4119 0.974823C19.7887 0.351408 18.9435 0.00079471 18.062 0H3.32401C2.44275 0.00105857 1.59789 0.35159 0.974747 0.974731C0.351605 1.59787 0.00105857 2.44275 0 3.32401V21.74C0.00132311 22.6211 0.351985 23.4657 0.975098 24.0886C1.59821 24.7115 2.44292 25.0619 3.32401 25.063H4.024C4.024 25.092 4.01601 25.119 4.01601 25.149C4.01601 26.2152 4.43954 27.2377 5.19344 27.9916C5.94733 28.7455 6.96983 29.169 8.036 29.169C9.10217 29.169 10.1247 28.7455 10.8786 27.9916C11.6325 27.2377 12.056 26.2152 12.056 25.149C12.056 25.12 12.048 25.093 12.048 25.063H22.587C22.587 25.092 22.579 25.119 22.579 25.149C22.579 26.2152 23.0025 27.2377 23.7564 27.9916C24.5103 28.7455 25.5328 29.169 26.599 29.169C27.6652 29.169 28.6877 28.7455 29.4416 27.9916C30.1955 27.2377 30.619 26.2152 30.619 25.149C30.619 25.111 30.61 25.077 30.609 25.04C31.4458 24.9824 32.2297 24.6099 32.803 23.9977C33.3763 23.3854 33.6964 22.5788 33.699 21.74V17.02C33.6998 16.4745 33.567 15.9372 33.312 15.455V15.455ZM8.03999 27.288C7.61722 27.2878 7.20401 27.1623 6.85257 26.9273C6.50113 26.6923 6.22725 26.3583 6.06555 25.9677C5.90386 25.5771 5.86161 25.1473 5.94414 24.7327C6.02666 24.318 6.23026 23.9372 6.52921 23.6382C6.82815 23.3393 7.20902 23.1357 7.62366 23.0531C8.0383 22.9706 8.46809 23.0129 8.85872 23.1746C9.24935 23.3363 9.58327 23.6101 9.81827 23.9616C10.0533 24.313 10.1788 24.7262 10.179 25.149C10.1785 25.7161 9.95294 26.2599 9.55191 26.6609C9.15088 27.0619 8.60713 27.2875 8.03999 27.288V27.288ZM19.503 23.182H11.526C11.1812 22.56 10.6763 22.0417 10.0636 21.6807C9.45082 21.3198 8.75264 21.1295 8.0415 21.1295C7.33037 21.1295 6.63219 21.3198 6.01945 21.6807C5.40672 22.0417 4.90177 22.56 4.55701 23.182H3.32401C2.94164 23.1817 2.57501 23.0297 2.30464 22.7594C2.03427 22.489 1.88227 22.1224 1.882 21.74V3.32401C1.88253 2.94173 2.03462 2.57524 2.30493 2.30493C2.57524 2.03462 2.94173 1.88252 3.32401 1.88199H18.061C18.4433 1.88252 18.8098 2.03462 19.0801 2.30493C19.3504 2.57524 19.5025 2.94173 19.503 3.32401V23.181V23.182ZM26.603 27.288C26.1802 27.288 25.7669 27.1626 25.4153 26.9278C25.0637 26.6929 24.7897 26.359 24.6278 25.9684C24.466 25.5778 24.4236 25.148 24.506 24.7333C24.5884 24.3186 24.7919 23.9376 25.0909 23.6385C25.3898 23.3395 25.7706 23.1358 26.1853 23.0532C26.6 22.9706 27.0298 23.0128 27.4205 23.1745C27.8112 23.3361 28.1452 23.61 28.3802 23.9615C28.6152 24.3129 28.7408 24.7262 28.741 25.149C28.7402 25.7164 28.5143 26.2603 28.1129 26.6613C27.7115 27.0623 27.1674 27.2877 26.6 27.288H26.603ZM31.821 21.74C31.8207 22.1224 31.6687 22.489 31.3984 22.7594C31.128 23.0297 30.7614 23.1817 30.379 23.182H30.087C29.7422 22.56 29.2373 22.0417 28.6245 21.6807C28.0118 21.3198 27.3136 21.1295 26.6025 21.1295C25.8914 21.1295 25.1932 21.3198 24.5805 21.6807C23.9677 22.0417 23.4628 22.56 23.118 23.182H21.384V9.66599H27.225C27.4864 9.66546 27.7429 9.73625 27.9671 9.8707C28.1912 10.0051 28.3744 10.1982 28.497 10.429L31.65 16.341C31.761 16.5498 31.819 16.7826 31.819 17.019L31.821 21.74Z" fill="#FF3333"/>
<path d="M13.369 8.976V6.205H8.88799V10.162H4.92999V14.643H7.72998C8.00041 13.245 8.68125 11.9593 9.68562 10.9499C10.69 9.94055 11.9723 9.25335 13.369 8.976V8.976Z" fill="#FF3333"/>
<path d="M8.50897 17.985V18.424H12.99V14.466H16.947V9.985H16.309C14.2478 10.1125 12.3077 11.002 10.866 12.4806C9.42438 13.9593 8.58422 15.9213 8.50897 17.985V17.985Z" fill="#FF3333"/>
<path d="M27.037 11.949C26.9584 11.798 26.8397 11.6714 26.6941 11.5832C26.5484 11.4951 26.3813 11.4486 26.211 11.449H23.976C23.7687 11.4466 23.5689 11.5265 23.4204 11.6712C23.2719 11.816 23.1869 12.0137 23.184 12.221V16.021C23.1869 16.2283 23.2719 16.426 23.4204 16.5707C23.5689 16.7155 23.7687 16.7954 23.976 16.793H28.203C28.3391 16.7943 28.4733 16.7609 28.5928 16.6959C28.7124 16.6308 28.8134 16.5364 28.8863 16.4215C28.9592 16.3065 29.0015 16.1749 29.0094 16.039C29.0172 15.9032 28.9902 15.7675 28.931 15.645L27.037 11.949Z" fill="#FF3333"/>
</g>
<defs>
<clipPath id="clip0">
<rect width="33.703" height="29.17" fill="white"/>
</clipPath>
</defs>
</svg>
