<svg width="34" height="28" viewBox="0 0 34 28" fill="none" xmlns="http://www.w3.org/2000/svg">
<g clip-path="url(#clip0)">
<path d="M28.914 3.05176e-05H4.71403C3.46526 0.00135406 2.26803 0.498002 1.38502 1.38101C0.502008 2.26402 0.00535187 3.46123 0.00402832 4.70999V22.587C0.00535187 23.8358 0.502008 25.033 1.38502 25.916C2.26803 26.7991 3.46526 27.2957 4.71403 27.297H28.914C30.1628 27.2957 31.36 26.7991 32.243 25.916C33.126 25.033 33.6227 23.8358 33.624 22.587V4.70999C33.6227 3.46123 33.126 2.26402 32.243 1.38101C31.36 0.498002 30.1628 0.00135406 28.914 3.05176e-05ZM4.71403 1.98801H28.914C29.6357 1.9888 30.3276 2.27586 30.8379 2.78616C31.3482 3.29647 31.6352 3.98832 31.636 4.70999V5.19101L18.748 14.028C18.1769 14.4159 17.5024 14.6233 16.812 14.6233C16.1216 14.6233 15.4472 14.4159 14.876 14.028L1.98803 5.19101V4.70999C1.98882 3.98832 2.27586 3.29647 2.78616 2.78616C3.29647 2.27586 3.98835 1.9888 4.71003 1.98801H4.71403ZM28.914 25.308H4.71403C3.99235 25.3072 3.30046 25.0202 2.79016 24.5099C2.27986 23.9996 1.99282 23.3077 1.99203 22.586V7.60001L13.755 15.665C14.6579 16.2781 15.7241 16.6059 16.8155 16.6059C17.9069 16.6059 18.9731 16.2781 19.876 15.665L31.639 7.60001V22.584C31.639 23.3067 31.3519 23.9999 30.8409 24.5109C30.3299 25.0219 29.6367 25.309 28.914 25.309V25.308Z" fill="#FF3333"/>
</g>
<defs>
<clipPath id="clip0">
<rect width="33.624" height="27.297" fill="white"/>
</clipPath>
</defs>
</svg>
