<svg xmlns="http://www.w3.org/2000/svg" width="30.827" height="29.17" viewBox="0 0 30.827 29.17"><defs><style>.a{fill:#48494c;}</style></defs><g transform="translate(0)"><path class="a" d="M177.113,548.17h-.12a2.393,2.393,0,0,1-1.9-.893,2.339,2.339,0,0,1-.394-1.959l.184-1.663a1.032,1.032,0,0,0-1-1.286h-4.535a7.869,7.869,0,0,1-7.86-7.861v-7.646a7.869,7.869,0,0,1,7.86-7.861h15.107a7.869,7.869,0,0,1,7.86,7.861v7.057c0,.342-.064,8.339-5.615,8.339-.036.008-.245.137-.482.6A9.6,9.6,0,0,1,177.113,548.17Zm-.39-4.124-.184,1.663a.509.509,0,0,0,.043.419.531.531,0,0,0,.426.16h.106a7.729,7.729,0,0,0,7.429-4.3,2.536,2.536,0,0,1,2.155-1.618c3.69,0,3.733-6.392,3.733-6.457v-7.057a5.986,5.986,0,0,0-5.978-5.979H169.347a5.986,5.986,0,0,0-5.978,5.979v7.646a5.985,5.985,0,0,0,5.978,5.979h4.535a2.914,2.914,0,0,1,2.842,3.56Z" transform="translate(-161.487 -519)"/></g><g transform="translate(4.337 8.55)"><path class="a" d="M169.218,534.712a3.27,3.27,0,1,1,3.27-3.27A3.274,3.274,0,0,1,169.218,534.712Zm0-4.6a1.326,1.326,0,1,0,1.325,1.326A1.328,1.328,0,0,0,169.218,530.116Z" transform="translate(-165.947 -528.171)"/><g transform="translate(7.805)"><path class="a" d="M177.774,534.712a3.27,3.27,0,1,1,3.271-3.27A3.274,3.274,0,0,1,177.774,534.712Zm0-4.6a1.326,1.326,0,1,0,1.326,1.326A1.328,1.328,0,0,0,177.774,530.116Z" transform="translate(-174.503 -528.171)"/></g><g transform="translate(15.613)"><path class="a" d="M186.331,534.712a3.27,3.27,0,1,1,3.271-3.27A3.273,3.273,0,0,1,186.331,534.712Zm0-4.6a1.326,1.326,0,1,0,1.326,1.326A1.327,1.327,0,0,0,186.331,530.116Z" transform="translate(-183.061 -528.171)"/></g></g></svg>