<svg xmlns="http://www.w3.org/2000/svg" width="38.893" height="29.17" viewBox="0 0 38.893 29.17"><defs><style>.a{fill:#48494c;}</style></defs><path class="a" d="M189.77,396H163.122A6.129,6.129,0,0,0,157,402.122v16.925a6.129,6.129,0,0,0,6.122,6.122H189.77a6.129,6.129,0,0,0,6.122-6.122V402.122A6.129,6.129,0,0,0,189.77,396Zm-26.648,2.161H189.77a3.966,3.966,0,0,1,3.962,3.962v9H159.161v-9A3.966,3.966,0,0,1,163.122,398.161Zm26.648,24.848H163.122a3.966,3.966,0,0,1-3.962-3.962v-5.762h34.571v5.762A3.966,3.966,0,0,1,189.77,423.009Z" transform="translate(-157 -396)"/><path class="a" d="M173.64,416H161.972a.972.972,0,1,0,0,1.945H173.64a.972.972,0,0,0,0-1.945Z" transform="translate(-157.111 -394.22)"/><path class="a" d="M180.16,416h-2.188a.972.972,0,1,0,0,1.945h2.188a.972.972,0,1,0,0-1.945Z" transform="translate(-155.104 -394.22)"/><path class="a" d="M186.91,416h-2.188a.972.972,0,1,0,0,1.945h2.188a.972.972,0,1,0,0-1.945Z" transform="translate(-153.851 -394.22)"/><path class="a" d="M180.458,404.98h2.188a1.457,1.457,0,0,0,1.215-.654,1.457,1.457,0,0,0,1.215.654h2.188a1.459,1.459,0,0,0,1.458-1.458v-2.188a1.459,1.459,0,0,0-1.458-1.458h-2.188a1.457,1.457,0,0,0-1.215.654,1.457,1.457,0,0,0-1.215-.654h-2.188A1.459,1.459,0,0,0,179,401.333v2.188A1.459,1.459,0,0,0,180.458,404.98Zm4.618-3.646h2.188v2.188h-2.188Zm-4.618,0h2.188v2.188h-2.188Z" transform="translate(-153.72 -396.107)"/></svg>