<svg width="31" height="30" viewBox="0 0 31 30" fill="none" xmlns="http://www.w3.org/2000/svg">
<g clip-path="url(#clip0)">
<path d="M15.626 29.17H15.506C15.1422 29.1753 14.7821 29.0977 14.4528 28.943C14.1236 28.7883 13.834 28.5605 13.606 28.277C13.3997 27.9998 13.2574 27.6804 13.1892 27.3417C13.1211 27.003 13.1289 26.6534 13.212 26.318L13.396 24.655C13.4346 24.5027 13.438 24.3436 13.4059 24.1898C13.3737 24.036 13.3068 23.8916 13.2104 23.7675C13.1139 23.6435 12.9904 23.5431 12.8493 23.474C12.7081 23.4049 12.5531 23.3691 12.396 23.369H7.86098C5.77693 23.3666 3.77894 22.5376 2.30539 21.0639C0.831841 19.5902 0.00309394 17.592 0.000976562 15.508V7.862C0.00309394 5.77796 0.831841 3.77989 2.30539 2.30615C3.77894 0.832416 5.77693 0.00335907 7.86098 0.000976562H22.968C25.052 0.00335907 27.05 0.832416 28.5235 2.30615C29.9971 3.77989 30.8259 5.77796 30.828 7.862V14.919C30.828 15.261 30.764 23.258 25.213 23.258C25.177 23.266 24.968 23.395 24.731 23.858C23.897 25.5351 22.5906 26.9316 20.9728 27.8755C19.355 28.8194 17.4964 29.2693 15.626 29.17V29.17ZM15.236 25.046L15.052 26.709C15.0288 26.7778 15.0207 26.8509 15.0281 26.9232C15.0355 26.9954 15.0583 27.0653 15.095 27.128C15.1497 27.1846 15.2163 27.2282 15.29 27.2559C15.3636 27.2836 15.4425 27.2946 15.521 27.288H15.627C17.1516 27.3858 18.671 27.0294 19.9933 26.2641C21.3155 25.4988 22.3813 24.3587 23.056 22.988C23.2268 22.543 23.5196 22.1553 23.9008 21.8691C24.2819 21.5829 24.736 21.4099 25.211 21.37C28.901 21.37 28.944 14.978 28.944 14.913V7.85602C28.9421 6.27103 28.3117 4.75147 27.1911 3.63062C26.0704 2.50977 24.551 1.87913 22.966 1.87701H7.85997C6.27498 1.87913 4.75554 2.50977 3.63487 3.63062C2.51421 4.75147 1.88383 6.27103 1.88197 7.85602V15.502C1.88356 17.0871 2.51386 18.6068 3.63458 19.7277C4.7553 20.8486 6.2749 21.4792 7.85997 21.481H12.395C12.8326 21.4809 13.2646 21.5794 13.6589 21.7692C14.0532 21.9589 14.3998 22.235 14.6728 22.577C14.9458 22.919 15.1383 23.3181 15.236 23.7446C15.3336 24.1712 15.334 24.6143 15.237 25.041L15.236 25.046Z" fill="#FF3333"/>
<path d="M7.60802 15.091C6.96127 15.091 6.32905 14.8992 5.7913 14.5399C5.25355 14.1806 4.83443 13.6699 4.58693 13.0724C4.33943 12.4749 4.27467 11.8174 4.40085 11.1831C4.52702 10.5488 4.83846 9.9661 5.29577 9.50878C5.75309 9.05147 6.33574 8.74 6.97006 8.61382C7.60438 8.48765 8.26187 8.55242 8.85939 8.79992C9.4569 9.04742 9.96761 9.46658 10.3269 10.0043C10.6862 10.5421 10.878 11.1743 10.878 11.821C10.877 12.688 10.5321 13.5191 9.91908 14.1321C9.30607 14.7451 8.47495 15.0899 7.60802 15.091ZM7.60802 10.491C7.34571 10.4908 7.08925 10.5684 6.87106 10.714C6.65287 10.8596 6.48275 11.0666 6.38223 11.3089C6.28172 11.5512 6.25531 11.8178 6.30636 12.0751C6.35742 12.3324 6.48363 12.5687 6.66903 12.7543C6.85444 12.9398 7.09071 13.0662 7.34796 13.1175C7.60521 13.1687 7.87187 13.1425 8.11423 13.0422C8.35658 12.9418 8.56372 12.7719 8.70947 12.5538C8.85522 12.3357 8.93301 12.0793 8.93301 11.817C8.93143 11.4664 8.79123 11.1306 8.543 10.8829C8.29477 10.6353 7.95867 10.4958 7.60802 10.4951V10.491Z" fill="#FF3333"/>
<path d="M15.413 15.091C14.7663 15.0908 14.1342 14.8988 13.5966 14.5394C13.0589 14.18 12.64 13.6692 12.3926 13.0717C12.1453 12.4742 12.0806 11.8167 12.2069 11.1825C12.3332 10.5482 12.6447 9.96562 13.1021 9.5084C13.5595 9.05118 14.1421 8.73984 14.7764 8.61375C15.4107 8.48766 16.0681 8.5525 16.6656 8.80003C17.2631 9.04756 17.7737 9.46665 18.133 10.0044C18.4922 10.5421 18.684 11.1743 18.684 11.821C18.6829 12.6881 18.3379 13.5194 17.7247 14.1324C17.1115 14.7455 16.2801 15.0902 15.413 15.091V15.091ZM15.413 10.491C15.1507 10.491 14.8944 10.5688 14.6763 10.7145C14.4582 10.8602 14.2883 11.0673 14.1879 11.3095C14.0876 11.5518 14.0613 11.8185 14.1125 12.0757C14.1636 12.3329 14.2899 12.5692 14.4754 12.7546C14.6608 12.9401 14.8971 13.0664 15.1543 13.1175C15.4115 13.1687 15.6781 13.1425 15.9204 13.0421C16.1627 12.9417 16.3698 12.7717 16.5155 12.5537C16.6612 12.3356 16.739 12.0793 16.739 11.817C16.7374 11.4662 16.5971 11.1302 16.3486 10.8825C16.1002 10.6349 15.7638 10.4956 15.413 10.495V10.491Z" fill="#FF3333"/>
<path d="M23.22 15.091C22.5733 15.0908 21.9412 14.8988 21.4035 14.5394C20.8659 14.18 20.447 13.6692 20.1996 13.0717C19.9523 12.4742 19.8877 11.8167 20.0139 11.1825C20.1402 10.5482 20.4517 9.96562 20.9091 9.5084C21.3665 9.05118 21.9491 8.73984 22.5834 8.61375C23.2177 8.48766 23.8751 8.5525 24.4726 8.80003C25.0701 9.04756 25.5807 9.46665 25.94 10.0044C26.2992 10.5421 26.491 11.1743 26.491 11.821C26.4902 12.6882 26.1453 13.5196 25.532 14.1327C24.9187 14.7458 24.0872 15.0905 23.22 15.091V15.091ZM23.22 10.491C22.9577 10.491 22.7014 10.5688 22.4833 10.7145C22.2652 10.8602 22.0953 11.0673 21.9949 11.3095C21.8946 11.5518 21.8683 11.8185 21.9195 12.0757C21.9706 12.3329 22.0969 12.5692 22.2824 12.7546C22.4678 12.9401 22.7041 13.0664 22.9613 13.1175C23.2185 13.1687 23.4851 13.1425 23.7274 13.0421C23.9697 12.9417 24.1768 12.7717 24.3225 12.5537C24.4682 12.3356 24.546 12.0793 24.546 11.817C24.5447 11.4661 24.4044 11.13 24.1559 10.8822C23.9074 10.6345 23.5709 10.4953 23.22 10.495V10.491Z" fill="#FF3333"/>
</g>
<defs>
<clipPath id="clip0">
<rect width="30.827" height="29.17" fill="white"/>
</clipPath>
</defs>
</svg>
