<svg xmlns="http://www.w3.org/2000/svg" width="28.7" height="30.956" viewBox="0 0 28.7 30.956"><defs><style>.a{fill:#48494c;}</style></defs><g transform="translate(-99.4 -767.181)"><path class="a" d="M120.207,792.246l-5.991-3.459a1.3,1.3,0,0,0-1.954,1.128V792.6h-8.72a1.945,1.945,0,0,1-1.942-1.944V772.984a1.1,1.1,0,0,0-2.2,0v17.671a4.147,4.147,0,0,0,4.142,4.143h8.72v2.034a1.3,1.3,0,0,0,1.954,1.128l5.991-3.458A1.3,1.3,0,0,0,120.207,792.246Z"/><path class="a" d="M123.958,770.521h-8.72v-2.035a1.3,1.3,0,0,0-1.954-1.128l-5.991,3.458a1.3,1.3,0,0,0,0,2.256l5.991,3.459a1.3,1.3,0,0,0,1.954-1.128V772.72h8.72a1.944,1.944,0,0,1,1.942,1.942v17.672a1.1,1.1,0,1,0,2.2,0V774.662A4.146,4.146,0,0,0,123.958,770.521Z"/></g></svg>