<svg xmlns="http://www.w3.org/2000/svg" width="33.624" height="27.297" viewBox="0 0 33.624 27.297"><defs><style>.a{fill:#48494c;}</style></defs><path class="a" d="M131.814,816.9h-24.2a4.715,4.715,0,0,0-4.71,4.71v17.877a4.715,4.715,0,0,0,4.71,4.71h24.2a4.715,4.715,0,0,0,4.71-4.71V821.61A4.715,4.715,0,0,0,131.814,816.9Zm-24.2,1.988h24.2a2.725,2.725,0,0,1,2.722,2.722v.481l-12.888,8.837a3.446,3.446,0,0,1-3.872,0l-12.888-8.837v-.481A2.725,2.725,0,0,1,107.61,818.888Zm24.2,23.32h-24.2a2.725,2.725,0,0,1-2.722-2.722V824.5l11.763,8.065a5.448,5.448,0,0,0,6.121,0l11.763-8.065v14.984A2.725,2.725,0,0,1,131.814,842.209Z" transform="translate(-102.9 -816.9)"/></svg>