<svg xmlns="http://www.w3.org/2000/svg" width="29.169" height="29.17" viewBox="0 0 29.169 29.17"><defs><style>.a{fill:#48494c;}</style></defs><path class="a" d="M178.585,683.358a14.585,14.585,0,1,1,14.585-14.585A14.6,14.6,0,0,1,178.585,683.358Zm0-27.346a12.762,12.762,0,1,0,12.762,12.762A12.776,12.776,0,0,0,178.585,656.011Z" transform="translate(-164 -654.188)"/><g transform="translate(10.027 6.039)"><path class="a" d="M179.325,672.778a.911.911,0,0,1-.912-.912v-.722a3.435,3.435,0,0,1,2.084-3.191,2.891,2.891,0,0,0,1.779-2.35,2.288,2.288,0,0,0,.016-.253,3.15,3.15,0,0,0-.756-2.038,2.614,2.614,0,0,0-1.937-.676,3.182,3.182,0,0,0-2.825,2.147.912.912,0,0,1-1.728-.582,5,5,0,0,1,4.553-3.388,4.354,4.354,0,0,1,3.251,1.233,4.977,4.977,0,0,1,1.265,3.294h0a4.051,4.051,0,0,1-.025.452,4.714,4.714,0,0,1-2.887,3.84,1.619,1.619,0,0,0-.967,1.511v.722A.911.911,0,0,1,179.325,672.778Z" transform="translate(-174.999 -660.813)"/><g transform="translate(2.941 13.414)"><circle class="a" cx="1.383" cy="1.383" r="1.383"/></g></g></svg>