<svg xmlns="http://www.w3.org/2000/svg" width="29.169" height="29.17" viewBox="0 0 29.169 29.17"><defs><style>.a{fill:#48494c;}</style></defs><g transform="translate(-54.094 -48.02)"><path class="a" d="M75.471,77.189a14.412,14.412,0,0,1-3.366-.424,24.134,24.134,0,0,1-11.028-6.556A24.192,24.192,0,0,1,54.52,59.181c-.966-4-.277-7.418,1.939-9.634l.633-.633a3.062,3.062,0,0,1,4.326,0l3.636,3.635a3.06,3.06,0,0,1,0,4.326l-2.148,2.147a26.535,26.535,0,0,0,9.355,9.355l2.147-2.148a3.058,3.058,0,0,1,4.326,0l3.635,3.635a3.059,3.059,0,0,1,0,4.325l-.633.633A8.587,8.587,0,0,1,75.471,77.189ZM59.254,50.195a.871.871,0,0,0-.623.258L58,51.086c-1.659,1.659-2.144,4.353-1.365,7.581a21.964,21.964,0,0,0,5.979,10,22,22,0,0,0,10,5.979c3.229.779,5.921.295,7.58-1.365l.633-.633a.882.882,0,0,0,0-1.247l-3.634-3.635a.882.882,0,0,0-1.247,0L73.225,70.49a1.088,1.088,0,0,1-1.27.2,28.3,28.3,0,0,1-11.361-11.36,1.088,1.088,0,0,1,.2-1.27l2.722-2.721a.882.882,0,0,0,0-1.247l-3.635-3.636A.876.876,0,0,0,59.254,50.195Z" transform="translate(0)"/><path class="a" d="M244.878,135.937a1.088,1.088,0,0,1-1.088-1.088,7.21,7.21,0,0,0-7.2-7.2,1.088,1.088,0,0,1,0-2.177,9.389,9.389,0,0,1,9.378,9.378,1.088,1.088,0,0,1-1.088,1.088Z" transform="translate(-168.244 -71.831)"/><path class="a" d="M249.478,77.137a1.088,1.088,0,0,1-1.088-1.088,11.816,11.816,0,0,0-11.8-11.8,1.088,1.088,0,0,1,0-2.177,13.994,13.994,0,0,1,13.977,13.978A1.088,1.088,0,0,1,249.478,77.137Z" transform="translate(-168.244 -13.031)"/></g></svg>