<?xml version="1.0" encoding="utf-8"?>
<!-- Generator: Adobe Illustrator 25.2.1, SVG Export Plug-In . SVG Version: 6.00 Build 0)  -->
<svg version="1.1" id="Camada_1" xmlns="http://www.w3.org/2000/svg" xmlns:xlink="http://www.w3.org/1999/xlink" x="0px" y="0px"
	 viewBox="0 0 24.2 21.2" style="enable-background:new 0 0 24.2 21.2;" xml:space="preserve">
<style type="text/css">
	.st0{fill:#48494C;}
</style>
<path class="st0" d="M22.9,6.3h-2.4l-3.4-5.9c-0.2-0.3-0.6-0.4-0.9-0.2c-0.3,0.2-0.4,0.6-0.2,0.9l3,5.3H5.2l3-5.3
	C8.4,0.8,8.3,0.4,8,0.2S7.3,0.1,7.1,0.4L3.7,6.3H1.3c-0.7,0-1.2,0.5-1.2,1.2v2.2c0,0.7,0.5,1.2,1.2,1.2h0.4L3,18.7
	c0.3,1.5,1.7,2.5,3.2,2.4H18c1.5,0.1,2.9-1,3.2-2.4l1.3-7.8h0.4c0.7,0,1.2-0.5,1.2-1.2V7.5C24.1,6.9,23.6,6.3,22.9,6.3z M19.9,18.5
	c-0.2,0.8-1,1.4-1.9,1.3H6.2c-0.9,0.1-1.7-0.5-1.9-1.3L3,10.9h18.2L19.9,18.5z M22.8,9.6H1.4v-2h21.4V9.6z"/>
<path class="st0" d="M6.8,17.7c0.3,0,0.6-0.2,0.6-0.6v-2.9c0-0.3-0.2-0.6-0.6-0.6s-0.6,0.2-0.6,0.6v2.9C6.3,17.5,6.5,17.7,6.8,17.7z
	"/>
<path class="st0" d="M12.1,17.7c0.3,0,0.6-0.2,0.6-0.6l0,0v-2.9c0-0.3-0.2-0.6-0.6-0.6s-0.6,0.2-0.6,0.6v2.9
	C11.5,17.5,11.8,17.7,12.1,17.7z"/>
<path class="st0" d="M17.3,17.7c0.3,0,0.6-0.2,0.6-0.6l0,0v-2.9c0-0.3-0.2-0.6-0.6-0.6s-0.6,0.2-0.6,0.6v2.9
	C16.8,17.5,17,17.7,17.3,17.7z"/>
</svg>
