<svg xmlns="http://www.w3.org/2000/svg" width="27.275" height="29.169" viewBox="0 0 27.275 29.169"><defs><style>.a{fill:#48494c;}</style></defs><path class="a" d="M168.062,725.68a2.253,2.253,0,0,1-2.009-1.275,2.188,2.188,0,0,1,.376-2.462,3.183,3.183,0,0,0,.86-2.173v-2.133a12.663,12.663,0,0,1,8.216-11.484,4.041,4.041,0,0,1,2.963-3.4v-.141l.967-.02.036,0c.023,0,.06,0,.1,0h.9v.16a4.04,4.04,0,0,1,2.963,3.4,12.663,12.663,0,0,1,8.216,11.484v2.133a3.176,3.176,0,0,0,.861,2.173h0a2.192,2.192,0,0,1,.376,2.462,2.276,2.276,0,0,1-2.181,1.269l-22.521,0C168.142,725.68,168.1,725.68,168.062,725.68Zm11.4-21.3-.036,0a2.256,2.256,0,0,0-2.142,2.222l.016.122.036.669-.645.216a10.906,10.906,0,0,0-7.6,10.026v2.133a4.93,4.93,0,0,1-1.334,3.369.437.437,0,0,0-.078.507.454.454,0,0,0,.449.261l22.623,0a.484.484,0,0,0,.5-.259.436.436,0,0,0-.078-.507,4.927,4.927,0,0,1-1.334-3.369v-2.133a10.9,10.9,0,0,0-7.6-10.026l-.645-.216.052-.818a2.25,2.25,0,0,0-2.142-2.195Z" transform="translate(-165.831 -702.594)"/><g transform="translate(9.748 25.482)"><path class="a" d="M184.722,731.409a3.924,3.924,0,0,1-7.779,0C176.943,731.031,184.722,731.031,184.722,731.409Z" transform="translate(-176.943 -731.125)"/></g></svg>