<svg width="39" height="30" viewBox="0 0 39 30" fill="none" xmlns="http://www.w3.org/2000/svg">
<g clip-path="url(#clip0)">
<path d="M32.77 0H6.12199C4.49891 0.00185269 2.94283 0.647439 1.79514 1.79514C0.647439 2.94283 0.00185269 4.49892 0 6.12201V23.047C0.00185269 24.6701 0.647439 26.2262 1.79514 27.3739C2.94283 28.5216 4.49891 29.1672 6.12199 29.169H32.77C34.3931 29.1672 35.9492 28.5216 37.0969 27.3739C38.2446 26.2262 38.8901 24.6701 38.892 23.047V6.12201C38.8901 4.49892 38.2446 2.94283 37.0969 1.79514C35.9492 0.647439 34.3931 0.00185269 32.77 0V0ZM6.12199 2.16101H32.77C33.8205 2.16207 34.8276 2.57981 35.5704 3.3226C36.3132 4.06539 36.7309 5.07252 36.732 6.12299V15.123H2.161V6.12299C2.16205 5.0727 2.57969 4.06573 3.32227 3.32297C4.06484 2.58021 5.0717 2.16233 6.12199 2.16101V2.16101ZM32.77 27.009H6.12199C5.07153 27.0079 4.0644 26.5902 3.32161 25.8474C2.57882 25.1046 2.16106 24.0975 2.16 23.047V17.285H36.731V23.047C36.7299 24.0973 36.3123 25.1043 35.5697 25.847C34.8272 26.5898 33.8203 27.0077 32.77 27.009V27.009Z" fill="#FF3333"/>
<path d="M16.529 21.78H4.86099C4.60307 21.78 4.3557 21.8825 4.17332 22.0648C3.99095 22.2472 3.88849 22.4946 3.88849 22.7525C3.88849 23.0104 3.99095 23.2578 4.17332 23.4402C4.3557 23.6225 4.60307 23.725 4.86099 23.725H16.529C16.7869 23.725 17.0343 23.6225 17.2167 23.4402C17.399 23.2578 17.5015 23.0104 17.5015 22.7525C17.5015 22.4946 17.399 22.2472 17.2167 22.0648C17.0343 21.8825 16.7869 21.78 16.529 21.78V21.78Z" fill="#FF3333"/>
<path d="M25.056 21.78H22.868C22.6101 21.78 22.3627 21.8825 22.1803 22.0648C21.998 22.2472 21.8955 22.4946 21.8955 22.7525C21.8955 23.0104 21.998 23.2578 22.1803 23.4402C22.3627 23.6225 22.6101 23.725 22.868 23.725H25.056C25.3139 23.725 25.5613 23.6225 25.7437 23.4402C25.926 23.2578 26.0285 23.0104 26.0285 22.7525C26.0285 22.4946 25.926 22.2472 25.7437 22.0648C25.5613 21.8825 25.3139 21.78 25.056 21.78V21.78Z" fill="#FF3333"/>
<path d="M33.059 21.78H30.871C30.6131 21.78 30.3657 21.8825 30.1833 22.0648C30.001 22.2472 29.8985 22.4946 29.8985 22.7525C29.8985 23.0104 30.001 23.2578 30.1833 23.4402C30.3657 23.6225 30.6131 23.725 30.871 23.725H33.059C33.3169 23.725 33.5643 23.6225 33.7467 23.4402C33.929 23.2578 34.0315 23.0104 34.0315 22.7525C34.0315 22.4946 33.929 22.2472 33.7467 22.0648C33.5643 21.8825 33.3169 21.78 33.059 21.78V21.78Z" fill="#FF3333"/>
<path d="M26.738 8.87302H28.926C29.1668 8.87289 29.4038 8.81307 29.6159 8.69894C29.8279 8.58482 30.0083 8.41992 30.141 8.21899C30.2737 8.41992 30.4542 8.58482 30.6662 8.69894C30.8782 8.81307 31.1152 8.87289 31.356 8.87302H33.544C33.9306 8.87275 34.3013 8.71905 34.5747 8.44568C34.8481 8.17231 35.0018 7.80161 35.002 7.41501V5.22702C35.0018 4.84042 34.8481 4.46972 34.5747 4.19635C34.3013 3.92298 33.9306 3.76928 33.544 3.76901H31.356C31.1152 3.76914 30.8782 3.82893 30.6662 3.94305C30.4542 4.05718 30.2737 4.22208 30.141 4.423C30.0083 4.22208 29.8279 4.05718 29.6159 3.94305C29.4038 3.82893 29.1668 3.76914 28.926 3.76901H26.738C26.3516 3.76928 25.9811 3.92283 25.7077 4.19598C25.4344 4.46914 25.2806 4.83958 25.28 5.22601V7.414C25.28 7.80078 25.4336 8.17173 25.707 8.44531C25.9804 8.7189 26.3512 8.87275 26.738 8.87302V8.87302ZM31.356 5.22702H33.544V7.41501H31.356V5.22702ZM26.738 5.22702H28.926V7.41501H26.738V5.22702Z" fill="#FF3333"/>
</g>
<defs>
<clipPath id="clip0">
<rect width="38.893" height="29.17" fill="white"/>
</clipPath>
</defs>
</svg>
