<svg xmlns="http://www.w3.org/2000/svg" width="29.287" height="29.287" viewBox="0 0 29.287 29.287"><defs><style>.a{fill:#48494c;}</style></defs><g transform="translate(-96 -710)"><g transform="translate(96 710)"><path class="a" d="M105.8,722.813h-6.78A3.021,3.021,0,0,1,96,719.8v-6.78A3.021,3.021,0,0,1,99.017,710h6.78a3.021,3.021,0,0,1,3.017,3.017v6.78A3.021,3.021,0,0,1,105.8,722.813Zm-6.78-10.983a1.188,1.188,0,0,0-1.186,1.186v6.78a1.188,1.188,0,0,0,1.186,1.186h6.78a1.188,1.188,0,0,0,1.186-1.186v-6.78a1.188,1.188,0,0,0-1.186-1.186Z" transform="translate(-96 -710)"/></g><g transform="translate(96 726.474)"><path class="a" d="M105.8,740.813h-6.78A3.021,3.021,0,0,1,96,737.8v-6.78A3.021,3.021,0,0,1,99.017,728h6.78a3.021,3.021,0,0,1,3.017,3.017v6.78A3.021,3.021,0,0,1,105.8,740.813Zm-6.78-10.983a1.188,1.188,0,0,0-1.186,1.186v6.78a1.188,1.188,0,0,0,1.186,1.186h6.78a1.188,1.188,0,0,0,1.186-1.186v-6.78a1.188,1.188,0,0,0-1.186-1.186Z" transform="translate(-96 -728)"/></g><g transform="translate(112.474 710)"><path class="a" d="M123.8,722.813h-6.78A3.021,3.021,0,0,1,114,719.8v-6.78A3.021,3.021,0,0,1,117.017,710h6.78a3.021,3.021,0,0,1,3.017,3.017v6.78A3.021,3.021,0,0,1,123.8,722.813Zm-6.78-10.983a1.188,1.188,0,0,0-1.186,1.186v6.78a1.188,1.188,0,0,0,1.186,1.186h6.78a1.188,1.188,0,0,0,1.186-1.186v-6.78a1.188,1.188,0,0,0-1.186-1.186Z" transform="translate(-114 -710)"/></g><g transform="translate(112.474 726.474)"><path class="a" d="M123.8,740.813h-6.78A3.021,3.021,0,0,1,114,737.8v-6.78A3.021,3.021,0,0,1,117.017,728h6.78a3.021,3.021,0,0,1,3.017,3.017v6.78A3.021,3.021,0,0,1,123.8,740.813Zm-6.78-10.983a1.188,1.188,0,0,0-1.186,1.186v6.78a1.188,1.188,0,0,0,1.186,1.186h6.78a1.188,1.188,0,0,0,1.186-1.186v-6.78a1.188,1.188,0,0,0-1.186-1.186Z" transform="translate(-114 -728)"/></g></g></svg>