<svg width="29" height="31" viewBox="0 0 29 31" fill="none" xmlns="http://www.w3.org/2000/svg">
<g clip-path="url(#clip0)">
<path d="M20.807 25.0649L14.816 21.606C14.6181 21.4908 14.3933 21.4299 14.1643 21.4295C13.9354 21.4291 13.7104 21.4892 13.5121 21.6036C13.3138 21.7181 13.1492 21.8829 13.0351 22.0814C12.9209 22.2799 12.8612 22.505 12.862 22.7339V25.4189H4.142C3.62685 25.4182 3.13305 25.213 2.76897 24.8486C2.40489 24.4841 2.20026 23.9901 2.2 23.475V5.80298C2.2 5.51124 2.08411 5.23144 1.87782 5.02515C1.67153 4.81886 1.39174 4.70294 1.1 4.70294C0.80826 4.70294 0.528472 4.81886 0.322182 5.02515C0.115892 5.23144 0 5.51124 0 5.80298V23.474C0.00105857 24.5723 0.437754 25.6253 1.21427 26.402C1.99079 27.1787 3.0437 27.6156 4.142 27.6169H12.862V29.6509C12.8612 29.8799 12.9209 30.105 13.0351 30.3035C13.1492 30.502 13.3138 30.6668 13.5121 30.7813C13.7104 30.8958 13.9354 30.9559 14.1643 30.9554C14.3933 30.955 14.6181 30.8942 14.816 30.779L20.807 27.321C21.0056 27.2072 21.1707 27.0429 21.2855 26.8448C21.4003 26.6468 21.4608 26.4219 21.4608 26.193C21.4608 25.9641 21.4003 25.7391 21.2855 25.5411C21.1707 25.343 21.0056 25.1787 20.807 25.0649V25.0649Z" fill="#FF3333"/>
<path d="M24.558 3.33997H15.838V1.30499C15.8388 1.07603 15.7791 0.850896 15.665 0.652407C15.5508 0.453918 15.3863 0.289098 15.188 0.174624C14.9897 0.060149 14.7647 7.61827e-05 14.5357 0.000490409C14.3067 0.000904635 14.0819 0.0617516 13.884 0.176943L7.89303 3.63495C7.69438 3.74875 7.52931 3.91301 7.41451 4.11109C7.29971 4.30916 7.23926 4.53401 7.23926 4.76294C7.23926 4.99188 7.29971 5.21679 7.41451 5.41486C7.52931 5.61293 7.69438 5.77719 7.89303 5.89099L13.884 9.34998C14.0819 9.46517 14.3067 9.52602 14.5357 9.52643C14.7647 9.52684 14.9897 9.46683 15.188 9.35236C15.3863 9.23788 15.5508 9.07306 15.665 8.87457C15.7791 8.67609 15.8388 8.45096 15.838 8.22199V5.53894H24.558C25.0729 5.53947 25.5666 5.74426 25.9306 6.10834C26.2947 6.47242 26.4995 6.96607 26.5 7.48096V25.153C26.5 25.4447 26.6159 25.7245 26.8222 25.9308C27.0285 26.1371 27.3083 26.253 27.6 26.253C27.8918 26.253 28.1716 26.1371 28.3778 25.9308C28.5841 25.7245 28.7 25.4447 28.7 25.153V7.48096C28.6987 6.38293 28.2619 5.33029 27.4853 4.55396C26.7088 3.77763 25.6561 3.34103 24.558 3.33997V3.33997Z" fill="#FF3333"/>
</g>
<defs>
<clipPath id="clip0">
<rect width="28.7" height="30.956" fill="white"/>
</clipPath>
</defs>
</svg>
