<svg xmlns="http://www.w3.org/2000/svg" width="31.042" height="29.169" viewBox="0 0 31.042 29.169"><defs><style>.a{fill:#48494c;}</style></defs><g transform="translate(-104.669 -664.71)"><path class="a" d="M135.673,673.734l-3.832-8.2a1.322,1.322,0,0,0-.562-.622,1.538,1.538,0,0,0-1.52,0,1.32,1.32,0,0,0-.56.616l-3.82,8.209a1.276,1.276,0,0,0-.124.541,1.114,1.114,0,0,0,.417.872,1.3,1.3,0,0,0,1.515.142,1.216,1.216,0,0,0,.473-.561l.716-1.6h4.311l.716,1.6a1.2,1.2,0,0,0,.477.564,1.231,1.231,0,0,0,.637.178,1.293,1.293,0,0,0,.871-.327,1.116,1.116,0,0,0,.405-.867A1.3,1.3,0,0,0,135.673,673.734Zm-3.979-2.85h-2.322l1.161-2.613Z" transform="translate(-0.085 0)"/><path class="a" d="M133.477,691.666h-3.686l4.464-6.258a1.5,1.5,0,0,0,.32-.893,1.168,1.168,0,0,0-.344-.841,1.216,1.216,0,0,0-.878-.34h-5.716a1.151,1.151,0,1,0,0,2.292h3.492l-4.464,6.246a1.5,1.5,0,0,0-.3.891,1.176,1.176,0,0,0,.341.852,1.214,1.214,0,0,0,.881.342h5.9a1.151,1.151,0,1,0,0-2.291Z" transform="translate(-0.089 -0.077)"/><path class="a" d="M112.832,667.724l-3.169-2.745a1.1,1.1,0,0,0-1.443,0l-3.169,2.745a1.1,1.1,0,0,0,.721,1.934h2.016v23.069a1.154,1.154,0,0,0,2.307,0V669.657h2.016A1.1,1.1,0,0,0,112.832,667.724Z" transform="translate(0)"/><path class="a" d="M115.042,690.866l3.169,2.745a1.1,1.1,0,0,0,1.442,0l3.17-2.745a1.1,1.1,0,0,0-.721-1.934h-2.017V665.863a1.153,1.153,0,0,0-2.306,0v23.069h-2.016A1.1,1.1,0,0,0,115.042,690.866Z" transform="translate(-0.041 0)"/></g></svg>