<svg width="34" height="30" viewBox="0 0 34 30" fill="none" xmlns="http://www.w3.org/2000/svg">
<g clip-path="url(#clip0)">
<path d="M32.938 7.553L30.413 2.505C30.0383 1.75135 29.46 1.11772 28.7437 0.675864C28.0274 0.234012 27.2016 0.00160855 26.36 0.00499561H6.94697C6.10534 0.00160855 5.27957 0.234012 4.56324 0.675864C3.84691 1.11772 3.26866 1.75135 2.89398 2.505L0.36897 7.553C0.0596007 8.16903 -0.0598351 8.86307 0.0257997 9.54708C0.111434 10.2311 0.398284 10.8743 0.849973 11.395L1.76497 12.456C2.20389 12.9546 2.77007 13.3244 3.40297 13.526V25.08C3.4193 26.1789 3.87052 27.2264 4.65776 27.9932C5.445 28.7601 6.50408 29.1836 7.60298 29.171H25.822C26.9209 29.1836 27.98 28.7601 28.7672 27.9932C29.5544 27.2264 30.0056 26.1789 30.022 25.08V13.485C30.607 13.2762 31.1293 12.9221 31.54 12.456L32.455 11.395C32.907 10.8745 33.1942 10.2314 33.2802 9.54738C33.3662 8.86337 33.2471 8.16922 32.938 7.553V7.553ZM4.66797 3.39101C4.87803 2.9665 5.20297 2.60941 5.60583 2.36034C6.00869 2.11127 6.47334 1.98018 6.94697 1.98199H26.36C26.8337 1.98011 27.2986 2.11115 27.7016 2.36022C28.1046 2.60929 28.4297 2.96643 28.64 3.39101L30.768 7.64599H2.53998L4.66797 3.39101ZM23.293 9.62899L21.971 11.16C21.8074 11.3363 21.6092 11.4771 21.3888 11.5733C21.1684 11.6695 20.9305 11.7191 20.69 11.7191C20.4495 11.7191 20.2115 11.6695 19.9911 11.5733C19.7707 11.4771 19.5725 11.3363 19.409 11.16L18.087 9.62801L23.293 9.62899ZM15.222 9.62899L13.9 11.16C13.7364 11.3363 13.5382 11.4771 13.3178 11.5733C13.0974 11.6695 12.8595 11.7191 12.619 11.7191C12.3785 11.7191 12.1405 11.6695 11.9201 11.5733C11.6997 11.4771 11.5015 11.3363 11.338 11.16L10.015 9.62899H15.222ZM2.35098 10.101C2.235 9.96066 2.14554 9.80039 2.08697 9.62801H7.15197L5.82997 11.159C5.66643 11.3353 5.46826 11.476 5.24783 11.5723C5.0274 11.6685 4.78949 11.7181 4.54898 11.7181C4.30847 11.7181 4.07055 11.6685 3.85013 11.5723C3.6297 11.476 3.43151 11.3353 3.26797 11.159L2.35098 10.101ZM9.63397 27.188V20.488C9.63397 20.3129 9.70348 20.1449 9.82722 20.021C9.95097 19.897 10.1188 19.8273 10.294 19.827H12.31C12.4852 19.8273 12.6532 19.897 12.7771 20.0209C12.901 20.1448 12.9707 20.3128 12.971 20.488V27.188H9.63397ZM25.823 27.188H14.954V20.488C14.9532 19.787 14.6744 19.115 14.1787 18.6193C13.683 18.1236 13.011 17.8448 12.31 17.844H10.294C9.59308 17.8448 8.92113 18.1236 8.42561 18.6193C7.9301 19.115 7.6515 19.7871 7.65097 20.488V27.188H7.60298C7.02964 27.2015 6.47432 26.9871 6.05862 26.5921C5.64292 26.197 5.40069 25.6533 5.38498 25.08V13.628C6.14011 13.4528 6.82031 13.0428 7.32797 12.457L8.58197 11.005L9.83597 12.457C10.1809 12.8567 10.6079 13.1773 11.0878 13.3971C11.5678 13.6169 12.0896 13.7307 12.6175 13.7307C13.1454 13.7307 13.6671 13.6169 14.1471 13.3971C14.6271 13.1773 15.0541 12.8567 15.399 12.457L16.654 11.005L17.908 12.457C18.2529 12.8567 18.6799 13.1773 19.1598 13.3971C19.6398 13.6169 20.1615 13.7307 20.6895 13.7307C21.2174 13.7307 21.7391 13.6169 22.2191 13.3971C22.6991 13.1773 23.1261 12.8567 23.471 12.457L24.725 11.005L25.98 12.457C26.5143 13.0761 27.2406 13.4986 28.043 13.657V25.085C28.0254 25.6575 27.7822 26.1998 27.3663 26.5936C26.9504 26.9874 26.3956 27.2007 25.823 27.187V27.188ZM30.042 11.161C29.8784 11.3374 29.6802 11.478 29.4598 11.5742C29.2394 11.6705 29.0015 11.7201 28.761 11.7201C28.5205 11.7201 28.2825 11.6705 28.0621 11.5742C27.8417 11.478 27.6435 11.3374 27.48 11.161L26.157 9.62801H31.222C31.1631 9.80017 31.0733 9.96011 30.957 10.1L30.042 11.161Z" fill="#FF3333"/>
<path d="M23.88 16.4H18.98C18.4696 16.4011 17.9804 16.6043 17.6196 16.9653C17.2588 17.3263 17.0558 17.8156 17.055 18.326V22.252C17.0558 22.7625 17.259 23.252 17.62 23.613C17.981 23.974 18.4704 24.1772 18.981 24.178H23.881C24.3916 24.1772 24.881 23.974 25.242 23.613C25.603 23.252 25.8062 22.7625 25.807 22.252V18.326C25.8062 17.8153 25.6029 17.3257 25.2417 16.9646C24.8804 16.6036 24.3907 16.4005 23.88 16.4ZM23.862 22.234L19 22.252L18.982 18.344L23.862 18.326V22.234Z" fill="#FF3333"/>
</g>
<defs>
<clipPath id="clip0">
<rect width="33.309" height="29.17" fill="white"/>
</clipPath>
</defs>
</svg>
