<svg xmlns="http://www.w3.org/2000/svg" width="33.309" height="29.17" viewBox="0 0 33.309 29.17"><defs><style>.a{fill:#48494c;}</style></defs><path class="a" d="M191.851,442.125l-2.525-5.048a4.506,4.506,0,0,0-4.053-2.5H165.86a4.506,4.506,0,0,0-4.053,2.5l-2.525,5.048a3.48,3.48,0,0,0,.481,3.842l.915,1.061a3.664,3.664,0,0,0,1.638,1.07v11.554a4.153,4.153,0,0,0,4.2,4.091h18.219a4.153,4.153,0,0,0,4.2-4.091V448.057a3.666,3.666,0,0,0,1.518-1.029l.915-1.061A3.48,3.48,0,0,0,191.851,442.125Zm-28.27-4.162a2.532,2.532,0,0,1,2.279-1.409h19.413a2.533,2.533,0,0,1,2.28,1.409l2.128,4.255H161.453Zm18.625,6.238-1.322,1.531a1.747,1.747,0,0,1-2.562,0L177,444.2Zm-8.071,0-1.322,1.531a1.747,1.747,0,0,1-2.562,0l-1.323-1.531Zm-12.871.472A1.5,1.5,0,0,1,161,444.2h5.065l-1.322,1.531a1.747,1.747,0,0,1-2.562,0Zm7.283,17.087v-6.7a.661.661,0,0,1,.66-.661h2.016a.662.662,0,0,1,.661.661v6.7Zm16.189,0H173.867v-6.7a2.647,2.647,0,0,0-2.644-2.644h-2.016a2.646,2.646,0,0,0-2.643,2.644v6.7h-.048a2.168,2.168,0,0,1-2.218-2.108V448.2a3.668,3.668,0,0,0,1.943-1.171l1.254-1.452,1.254,1.452a3.674,3.674,0,0,0,5.563,0l1.255-1.452,1.254,1.452a3.674,3.674,0,0,0,5.563,0l1.254-1.452,1.255,1.452a3.662,3.662,0,0,0,2.063,1.2v11.428A2.169,2.169,0,0,1,184.736,461.759Zm4.219-16.027a1.747,1.747,0,0,1-2.562,0L185.07,444.2h5.065a1.494,1.494,0,0,1-.265.472Z" transform="translate(-158.913 -434.572)"/><path class="a" d="M182.825,451h-4.9A1.929,1.929,0,0,0,176,452.926v3.926a1.929,1.929,0,0,0,1.926,1.926h4.9a1.929,1.929,0,0,0,1.926-1.926v-3.926A1.929,1.929,0,0,0,182.825,451Zm-.018,5.834-4.862.018-.018-3.908,4.88-.018Z" transform="translate(-158.945 -434.6)"/></svg>