<svg xmlns="http://www.w3.org/2000/svg" width="37.812" height="29.169" viewBox="0 0 37.812 29.169"><defs><style>.a{fill:#48494c;}</style></defs><path class="a" d="M193.69,642.447H168.122A6.129,6.129,0,0,1,162,636.325v-1.739a2.536,2.536,0,0,1,1.974-2.495,4.323,4.323,0,0,0,0-8.458A2.533,2.533,0,0,1,162,621.14V619.4a6.129,6.129,0,0,1,6.122-6.122H193.69a6.129,6.129,0,0,1,6.122,6.122v16.926A6.129,6.129,0,0,1,193.69,642.447Zm-25.568-27.009a3.966,3.966,0,0,0-3.962,3.962v1.74a.378.378,0,0,0,.257.379,6.483,6.483,0,0,1,0,12.687.38.38,0,0,0-.257.38v1.739a3.965,3.965,0,0,0,3.962,3.961H193.69a3.965,3.965,0,0,0,3.962-3.961V619.4a3.966,3.966,0,0,0-3.962-3.962Z" transform="translate(-162 -613.277)"/><g transform="translate(13.394 7.611)"><g transform="translate(0 0.001)"><path class="a" d="M174.455,634.57a.972.972,0,0,1-.687-1.66l13.143-13.143a.972.972,0,1,1,1.375,1.375l-13.143,13.143A.97.97,0,0,1,174.455,634.57Z" transform="translate(-173.484 -619.484)"/></g><path class="a" d="M176.886,626.289a3.4,3.4,0,1,1,3.4-3.4A3.407,3.407,0,0,1,176.886,626.289Zm0-4.862a1.458,1.458,0,1,0,1.458,1.458A1.46,1.46,0,0,0,176.886,621.428Z" transform="translate(-173.483 -619.483)"/><g transform="translate(8.281 8.281)"><path class="a" d="M185.4,634.806a3.4,3.4,0,1,1,3.4-3.4A3.407,3.407,0,0,1,185.4,634.806Zm0-4.862a1.458,1.458,0,1,0,1.458,1.458A1.46,1.46,0,0,0,185.4,629.945Z" transform="translate(-182 -628)"/></g></g></svg>