<svg xmlns="http://www.w3.org/2000/svg" width="29.17" height="29.169" viewBox="0 0 29.17 29.169"><defs><style>.a{fill:#48494c;}</style></defs><path class="a" d="M179.327,572.25a6.077,6.077,0,1,0,6.077,6.077A6.084,6.084,0,0,0,179.327,572.25Zm0,10.209a4.132,4.132,0,1,1,4.132-4.132A4.137,4.137,0,0,1,179.327,582.459Z" transform="translate(-164.742 -563.996)"/><path class="a" d="M191.566,576.277H188.2a10.354,10.354,0,0,0-9.419-9.672v-3.112a.9.9,0,1,0-1.8,0v3.112a10.354,10.354,0,0,0-9.419,9.672H164.2a.9.9,0,1,0,0,1.8h3.4a10.362,10.362,0,0,0,9.381,9.139v3.646a.9.9,0,0,0,1.8,0v-3.646a10.362,10.362,0,0,0,9.381-9.139h3.4a.9.9,0,1,0,0-1.8Zm-13.685,9.185a8.551,8.551,0,1,1,8.551-8.551A8.561,8.561,0,0,1,177.881,585.462Z" transform="translate(-163.296 -562.593)"/></svg>