<svg xmlns="http://www.w3.org/2000/svg" width="33.703" height="29.17" viewBox="0 0 33.703 29.17"><defs><style>.a{fill:#48494c;}</style></defs><path class="a" d="M189.312,327.455l-3.152-5.91a3.317,3.317,0,0,0-2.933-1.76h-5.841v-4.46A3.327,3.327,0,0,0,174.062,312H159.324A3.328,3.328,0,0,0,156,315.324V333.74a3.328,3.328,0,0,0,3.324,3.323h.7c0,.029-.008.056-.008.086a4.02,4.02,0,1,0,8.04,0c0-.029-.008-.056-.008-.086h10.539c0,.029-.008.056-.008.086a4.02,4.02,0,1,0,8.04,0c0-.038-.009-.072-.01-.109a3.318,3.318,0,0,0,3.09-3.3v-4.72A3.337,3.337,0,0,0,189.312,327.455ZM164.04,339.288a2.138,2.138,0,1,1,2.139-2.139A2.141,2.141,0,0,1,164.04,339.288Zm11.463-4.106h-7.977a3.984,3.984,0,0,0-6.969,0h-1.233a1.443,1.443,0,0,1-1.442-1.442V315.324a1.444,1.444,0,0,1,1.442-1.442h14.737a1.444,1.444,0,0,1,1.442,1.442v19.857Zm7.1,4.106a2.138,2.138,0,1,1,2.138-2.139A2.142,2.142,0,0,1,182.6,339.288Zm5.218-5.548a1.443,1.443,0,0,1-1.442,1.442h-.292a3.984,3.984,0,0,0-6.969,0h-1.734V321.666h5.841a1.437,1.437,0,0,1,1.272.763l3.153,5.912a1.444,1.444,0,0,1,.169.678Z" transform="translate(-156 -312)"/><path class="a" d="M169.509,321.452v-2.771h-4.481v3.957h-3.958v4.481h2.8A7.165,7.165,0,0,1,169.509,321.452Z" transform="translate(-156.14 -312.476)"/><path class="a" d="M165.14,330.751v.439h4.481v-3.958h3.957v-4.481h-.638A8.319,8.319,0,0,0,165.14,330.751Z" transform="translate(-156.631 -312.766)"/><path class="a" d="M184.853,324.755a.929.929,0,0,0-.826-.5h-2.235a.783.783,0,0,0-.792.772v3.8a.783.783,0,0,0,.792.772h4.227a.8.8,0,0,0,.728-1.148Z" transform="translate(-157.816 -312.806)"/></svg>