<svg xmlns="http://www.w3.org/2000/svg" width="180" height="22.864" style=""><rect id="backgroundrect" width="100%" height="100%" x="0" y="0" fill="none" stroke="none"/>
  
<g class="currentLayer" style=""><title>Layer 1</title><g id="Grupo_4" data-name="Grupo 4" class="selected" fill="#ffffff" fill-opacity="1">
    <g id="Grupo_3" data-name="Grupo 3" fill="#ffffff" fill-opacity="1">
      <path id="Caminho_1" data-name="Caminho 1" d="M77.46899853515629,18.683117720603946 h3.815 v-5.806 h4.531 V9.461117720603966 h-4.531 V6.861117720603943 h4.7 v-3.417 h-8.514 z" fill="#ffffff" fill-opacity="1"/>
      <path id="Caminho_2" data-name="Caminho 2" d="M92.62500561523439,3.448117720603932 l-6.259,15.235 h4.2780000000000005 l0.8220000000000004,-2.2 h5.416 l0.7590000000000005,2.2 h4.32 l-6.2,-15.235 zm-0.06300000000000006,9.944 l1.6,-5.209 l0.06300000000000006,0.021000000000000015 l1.6,5.188 z" fill="#ffffff" fill-opacity="1"/>
      <path id="Caminho_3" data-name="Caminho 3" d="M115.87700903320308,8.697117720603956 a5.026,5.026 0 0 0 -2.866,-4.6930000000000005 a9.834,9.834 0 0 0 -3.688,-0.556 h-5.1 v15.235 h3.814 V13.76111772060392 h0.04200000000000003 l3.6,4.921 h4.552 l-4.236,-5.188 A4.646,4.646 0 0 0 115.87700903320308,8.697117720603956 zm-6.365,2.409 h-1.475 V6.861117720603943 H109.55300903320312 c1.5,0 2.508,0.7410000000000004 2.508,2.059 C112.06300903320312,10.38611772060392 111.09300903320309,11.107117720603924 109.51300903320316,11.107117720603924 z" fill="#ffffff" fill-opacity="1"/>
      <path id="Caminho_4" data-name="Caminho 4" d="M126.87800732421874,13.474117720603942 h-0.04200000000000003 l-3.1,-10.026 h-5.121 v15.235 h3.6670000000000007 l-0.127,-11.55 l3.372,11.55 h2.6340000000000003 l3.331,-11.447 l0.04100000000000003,0.04100000000000003 l-0.126,11.406 h3.6670000000000007 V3.448117720603932 h-5.142 z" fill="#ffffff" fill-opacity="1"/>
      <path id="Caminho_5" data-name="Caminho 5" d="M143.55502587890624,3.448117720603932 l-6.26,15.235 h4.2780000000000005 l0.8220000000000004,-2.2 h5.416 l0.7590000000000005,2.2 h4.32 l-6.2,-15.235 zm-0.06300000000000006,9.944 l1.6,-5.209 l0.06300000000000006,0.021000000000000015 l1.6,5.188 z" fill="#ffffff" fill-opacity="1"/>
      <path id="Caminho_6" data-name="Caminho 6" d="M4.512005615234386,3.487111861228925 h-4.515 v14.777 h2.6870000000000003 v-5.615 h1.848 c3.37,0 5.382,-1.713 5.382,-4.581 S7.8980056152343545,3.487111861228925 4.512005615234386,3.487111861228925 zm-1.828,2.45 h1.808 c1.738,0 2.734,0.776 2.734,2.1310000000000002 c0,1.854 -1.7000000000000002,2.13 -2.715,2.13 h-1.828 z" fill="#ffffff" fill-opacity="1"/>
      <path id="Caminho_7" data-name="Caminho 7" d="M22.112994384765614,8.491111861228944 c0,-3.273 -1.847,-5 -5.3420000000000005,-5 H11.812994384765602 v14.777 h2.6870000000000003 v-6.068 l4.422,6.068 h3.364 l-4.111,-5.35 A4.358,4.358 0 0 0 22.112994384765614,8.491111861228944 zm-7.6,-2.553 h1.9660000000000002 c1.792,0 2.951,0.935 2.951,2.3810000000000002 c0,2.079 -1.98,2.515 -3.64,2.515 h-1.2770000000000001 z" fill="#ffffff" fill-opacity="1"/>
      <path id="Caminho_8" data-name="Caminho 8" d="M31.597990234375004,3.21109184169768 a7.728,7.728 0 0 0 -7.805,7.818 a7.831,7.831 0 0 0 7.746,7.51 a7.67,7.67 0 1 0 0.05900000000000004,-15.329 zm0.05900000000000004,12.876 a5.213,5.213 0 1 1 5.177,-5.174 A5.176,5.176 0 0 1 31.656990234374973,16.087091841697713 z" fill="#ffffff" fill-opacity="1"/>
      <path id="Caminho_9" data-name="Caminho 9" d="M49.28098657226565,13.916111861228956 l-4.183,-10.429 h-3.8200000000000003 v14.777 h2.6870000000000003 v-10.97 l4.5,10.97 h1.6590000000000007 l4.495,-11.014 v11.014 h2.688 V3.487111861228925 h-3.8200000000000003 z" fill="#ffffff" fill-opacity="1"/>
      <path id="Caminho_10" data-name="Caminho 10" d="M67.24501098632811,3.21109184169768 a7.728,7.728 0 0 0 -7.8,7.818 a7.831,7.831 0 0 0 7.746,7.51 a7.67,7.67 0 1 0 0.05900000000000004,-15.329 zm0.06000000000000004,12.876 a5.213,5.213 0 1 1 5.177,-5.174 A5.176,5.176 0 0 1 67.30501098632817,16.087091841697713 z" fill="#ffffff" fill-opacity="1"/>
      <path id="Caminho_11" data-name="Caminho 11" d="M172.58502441406245,4.534105269432075 V-0.6578947305679321 h-8.394 v7.415 H156.7750244140625 v8.394 h5.249 A13.423,13.423 0 0 1 172.58502441406245,4.534105269432075 z" fill="#ffffff" fill-opacity="1"/>
      <path id="Caminho_12" data-name="Caminho 12" d="M173.2840024414063,6.397097945213318 a11.1,11.1 0 0 0 -9.094,9.468 v6.341 h8.394 v-7.415 h7.415 V6.397097945213318 z" fill="#ffffff" fill-opacity="1"/>
    </g>
  </g></g></svg>