<svg xmlns="http://www.w3.org/2000/svg" width="78" height="22.82" viewBox="0 0 78 22.82"><defs><style>.a{fill:#003048;}.b{fill:#008bed;}</style></defs><g transform="translate(-45.092 -42.688)"><path class="a" d="M81.3,55.359a6.445,6.445,0,1,0,1.384,2.053A6.446,6.446,0,0,0,81.3,55.359Zm-4.57,7.968a3.4,3.4,0,1,1,3.4-3.4A3.4,3.4,0,0,1,76.726,63.327Z" transform="translate(-13.684 -5.859)"/><path class="a" d="M110.227,44.136v4.43a6.462,6.462,0,1,0-.882,11.453,6.493,6.493,0,0,0,.97-.512,1.554,1.554,0,0,0,2.208.834,1.4,1.4,0,0,0,.769-1.261V44.22A1.547,1.547,0,0,0,111,42.874,1.406,1.406,0,0,0,110.227,44.136ZM106.9,57.383a3.352,3.352,0,1,1,3.353-3.352A3.356,3.356,0,0,1,106.9,57.383Z" transform="translate(-30.048)"/><path class="a" d="M55.9,62.137l-.634-.421a.684.684,0,0,0-.935.18,3.517,3.517,0,0,1-5.026.679,1.543,1.543,0,0,1-.358-.354,3.533,3.533,0,0,1,.191-4.67,3.369,3.369,0,0,1,2.412-1.02h.009a3.373,3.373,0,0,1,2.406,1,1.5,1.5,0,0,0,1.062.439,1.517,1.517,0,0,0,.847-.258l.177-.119a.658.658,0,0,0,.146-.13,1.541,1.541,0,0,0-.056-2.093l-.011-.011a6.465,6.465,0,1,0,0,9.139l.141-.142a.633.633,0,0,0,.117-.157A1.567,1.567,0,0,0,55.9,62.137Z" transform="translate(0 -5.859)"/><path class="a" d="M140.148,60.7h1.391a1.682,1.682,0,0,0,1.664-1.942,4.341,4.341,0,0,0-.332-1.179c-.031-.063-.052-.131-.079-.2a6.48,6.48,0,1,0-1.387,7.1l.016-.016a1.5,1.5,0,0,0-.6-2.485l-.062-.021a1.511,1.511,0,0,0-1.19.1,1.48,1.48,0,0,0-.344.254,3.412,3.412,0,0,1-5.724-1.612h6.643Zm-5.767-3.158a3.431,3.431,0,0,1,3.883-.76,3.556,3.556,0,0,1,1.541,1.416h-5.887A3.84,3.84,0,0,1,134.381,57.538Z" transform="translate(-46.349 -5.837)"/><path class="b" d="M171.278,49.543a6.468,6.468,0,0,0-7.086-1.385,6.527,6.527,0,0,0-.882.456V44.28a1.532,1.532,0,1,0-3.064-.011V59.044a1.532,1.532,0,0,0,2.977.512,6.463,6.463,0,0,0,8.056-10.012Zm-4.637,7.874a3.344,3.344,0,1,1,3.344-3.344A3.348,3.348,0,0,1,166.641,57.417Z" transform="translate(-62.599 -0.027)"/><g transform="translate(111.334 47.608)"><path class="b" d="M191.558,59.671a1.321,1.321,0,0,1-.934-2.255l.846-.9-.846-.8a1.321,1.321,0,0,1,1.868-1.868l1.257,1.257a2.064,2.064,0,0,1,0,2.915l-1.257,1.257A1.316,1.316,0,0,1,191.558,59.671Zm.323-2.731h0Z" transform="translate(-190.237 -53.468)"/></g><g transform="translate(118.966 47.608)"><path class="b" d="M209.753,53.468a1.321,1.321,0,0,1,.934,2.255l-.846.8.846.9a1.321,1.321,0,1,1-1.868,1.868l-1.257-1.257a2.064,2.064,0,0,1,0-2.915l1.257-1.257A1.318,1.318,0,0,1,209.753,53.468Zm-.082,2.757h0Z" transform="translate(-206.959 -53.468)"/></g><path class="b" d="M201.957,70.728a1.52,1.52,0,0,0-1.512-1.371h-.008a1.524,1.524,0,0,0-1.348.822,3.374,3.374,0,0,1-5.984,0,1.523,1.523,0,0,0-1.348-.822h0a1.517,1.517,0,0,0-1.377,2.153c.082.177.142.3.157.322a6.416,6.416,0,0,0,5.56,3.207c.091,0,.182,0,.273-.006h0a6.024,6.024,0,0,0,2.15-.464c.08-.032.162-.067.245-.1a2.643,2.643,0,0,1-2.307,2.3,2.844,2.844,0,0,1-.387.027,2.787,2.787,0,0,1-1.508-.439,1.6,1.6,0,0,0-1.767.043,1.606,1.606,0,0,0,.053,2.679,5.982,5.982,0,0,0,3.221.934c.163,0,.325-.007.486-.02a5.857,5.857,0,0,0,5.439-5.777S201.993,70.861,201.957,70.728Z" transform="translate(-78.903 -14.498)"/><g transform="translate(120.474 42.71)"><path class="b" d="M212.837,45.465h.3l-.319-.549a.341.341,0,0,0,.087-.036.334.334,0,0,0,.13-.14.5.5,0,0,0,0-.418.334.334,0,0,0-.129-.139.37.37,0,0,0-.193-.05h-.583v1.331h.251V44.93h.152Zm-.452-1.089h.312a.123.123,0,0,1,.069.019.125.125,0,0,1,.045.055.2.2,0,0,1,.016.082.21.21,0,0,1-.017.083.126.126,0,0,1-.045.055.121.121,0,0,1-.068.019h-.312Z" transform="translate(-211.281 -43.496)"/><g transform="translate(0 0)"><path class="b" d="M211.567,45.343a1.3,1.3,0,1,1,1.3-1.3A1.3,1.3,0,0,1,211.567,45.343Zm0-2.342a1.038,1.038,0,1,0,1.038,1.038A1.04,1.04,0,0,0,211.567,43Z" transform="translate(-210.263 -42.736)"/></g></g></g></svg>