<svg xmlns="http://www.w3.org/2000/svg" width="234.71" height="29.814" viewBox="0 0 234.71 29.814"><defs><style>.a{fill:#f33;}</style></defs><g transform="translate(-405.788 -374.25)"><g transform="translate(405.788 374.25)"><path class="a" d="M546.508,401.607h4.9v-7.63h5.816v-4.491H551.4v-3.41h6.033v-4.491h-10.93Z" transform="translate(-445.415 -376.316)"/><path class="a" d="M570.814,381.587l-8.035,20.02h5.492l1.055-2.894h6.952l.974,2.894H582.8l-7.954-20.02Zm-.081,13.067,2.056-6.845.081.027,2.055,6.818Z" transform="translate(-449.997 -376.316)"/><path class="a" d="M610.131,388.485a6.621,6.621,0,0,0-3.68-6.167,12.36,12.36,0,0,0-4.734-.731H595.17v20.02h4.9v-6.466h.054l4.626,6.466h5.844l-5.438-6.818A6.073,6.073,0,0,0,610.131,388.485Zm-8.17,3.166h-1.894v-5.573h1.947c1.921,0,3.22.974,3.22,2.706C605.234,390.7,603.989,391.651,601.96,391.651Z" transform="translate(-459.118 -376.316)"/><path class="a" d="M632.027,394.762h-.054L628,381.587h-6.574v20.021h4.708l-.163-15.178,4.329,15.178h3.381l4.276-15.042.053.054-.162,14.988h4.708V381.587h-6.6Z" transform="translate(-466.51 -376.316)"/><path class="a" d="M663.392,381.587l-8.035,20.02h5.492l1.055-2.894h6.953l.974,2.894h5.546l-7.954-20.02Zm-.08,13.067,2.055-6.845.081.027,2.056,6.818Z" transform="translate(-476.066 -376.316)"/><path class="a" d="M411.584,381.657h-5.8v19.432h3.45v-7.384h2.372c4.326,0,6.909-2.252,6.909-6.025S415.927,381.657,411.584,381.657Zm-2.346,3.222h2.321c2.231,0,3.51,1.021,3.51,2.8,0,2.438-2.183,2.8-3.485,2.8h-2.346Z" transform="translate(-405.788 -376.336)"/><path class="a" d="M440.116,388.237c0-4.3-2.371-6.58-6.858-6.58H426.9v19.432h3.45V393.11l5.676,7.979h4.318l-5.277-7.035A5.68,5.68,0,0,0,440.116,388.237Zm-9.761-3.358h2.524c2.3,0,3.788,1.229,3.788,3.131,0,2.734-2.542,3.308-4.673,3.308h-1.639Z" transform="translate(-411.735 -376.336)"/><path class="a" d="M458.323,381.164a10.04,10.04,0,0,0-10.02,10.272,10.165,10.165,0,0,0,9.943,9.868,10.071,10.071,0,1,0,.076-20.14Zm.076,16.918a6.854,6.854,0,1,1,6.646-6.8A6.662,6.662,0,0,1,458.4,398.082Z" transform="translate(-417.76 -376.197)"/><path class="a" d="M491.1,395.371l-5.37-13.714h-4.9v19.432h3.45V386.663l5.771,14.426h2.13l5.77-14.483v14.483h3.45V381.657h-4.9Z" transform="translate(-426.918 -376.336)"/><path class="a" d="M523.854,381.164a10.04,10.04,0,0,0-10.019,10.272,10.165,10.165,0,0,0,9.944,9.868,10.071,10.071,0,1,0,.075-20.14Zm.077,16.918a6.854,6.854,0,1,1,6.646-6.8A6.662,6.662,0,0,1,523.931,398.082Z" transform="translate(-436.214 -376.197)"/><path class="a" d="M711.295,380.915V374.25H700.519v9.519H691v10.776h6.738A17.232,17.232,0,0,1,711.295,380.915Z" transform="translate(-486.103 -374.25)"/><path class="a" d="M715.924,387.5a14.244,14.244,0,0,0-11.674,12.155v8.14h10.776v-9.519h9.519V387.5Z" transform="translate(-489.835 -377.981)"/></g></g></svg>