<svg xmlns="http://www.w3.org/2000/svg" width="65.104" height="23.41" viewBox="0 0 65.104 23.41"><defs><style>.a{fill:#f36;}</style></defs><g transform="translate(-48.186 -47.32)"><g transform="translate(48.186 47.32)"><g transform="translate(0 0)"><path class="a" d="M193.483,34.215h-2.334V42.2a.276.276,0,0,1-.274.274h-1.8a.276.276,0,0,1-.274-.274V34.215h-2.351a.263.263,0,0,1-.274-.261V32.54a.263.263,0,0,1,.274-.261h7.025a.276.276,0,0,1,.289.261v1.415A.276.276,0,0,1,193.483,34.215Z" transform="translate(-146.427 -25.448)"/><path class="a" d="M232.875,41.972a17.97,17.97,0,0,1-2.779.18c-1.772,0-3.336-.453-3.336-2.952V34.641c0-2.5,1.579-2.937,3.349-2.937a17.741,17.741,0,0,1,2.757.177c.192.028.274.1.274.274v1.282a.276.276,0,0,1-.274.274h-2.885c-.641,0-.878.214-.878.934v1.248h3.663a.276.276,0,0,1,.274.274v1.3a.276.276,0,0,1-.274.274H229.1V39.2c0,.714.233.934.878.934h2.894a.276.276,0,0,1,.274.274v1.282C233.151,41.86,233.067,41.944,232.875,41.972Z" transform="translate(-178.334 -24.995)"/><path class="a" d="M271.624,42.469h-2.182a.361.361,0,0,1-.357-.214l-1.894-2.992-1.71,2.937c-.1.165-.192.274-.344.274h-2.026a.182.182,0,0,1-.214-.18.253.253,0,0,1,.028-.1l2.977-4.956L262.9,32.531a.193.193,0,0,1-.028-.083.2.2,0,0,1,.214-.18h2.21c.152,0,.261.137.344.261l1.757,2.779,1.71-2.779a.445.445,0,0,1,.344-.261h2.033a.2.2,0,0,1,.214.18.194.194,0,0,1-.028.083l-2.992,4.738,3.114,4.916a.306.306,0,0,1,.041.137A.194.194,0,0,1,271.624,42.469Z" transform="translate(-206.726 -25.439)"/><path class="a" d="M145.141,32.41a.214.214,0,0,0-.214.169l-1.994,7.378c-.028.152-.068.214-.192.214s-.165-.056-.192-.214l-1.988-7.378a.214.214,0,0,0-.214-.169h-1.962a.214.214,0,0,0-.214.261s2.434,8.457,2.46,8.549a2.07,2.07,0,0,0,2.116,1.5,2.137,2.137,0,0,0,2.116-1.5c.038-.115,2.419-8.549,2.419-8.549a.214.214,0,0,0-.214-.259Z" transform="translate(-108.675 -25.551)"/><path class="a" d="M25.531.32H5.073A2.125,2.125,0,0,0,3.211,3.432l2.048,3.9H1.548A1.338,1.338,0,0,0,.343,9.3L6.926,21.736a1.364,1.364,0,0,0,2.411,0l1.787-3.371,2.244,4.245a2.105,2.105,0,0,0,3.721,0L27.348,3.32a2.039,2.039,0,0,0-1.817-3ZM16.39,8.469,11.9,16.886a.889.889,0,0,1-1.571,0L5.9,8.551a.827.827,0,0,1,.731-1.216H15.7a.772.772,0,0,1,.692,1.135Z" transform="translate(-0.186 -0.32)"/></g></g></g></svg>