<svg xmlns="http://www.w3.org/2000/svg" width="47" height="32" viewBox="0 0 47 32"><defs><style>.a{fill:#fff;stroke:#c1c4cc;}.b{fill:#f6d655;}.b,.c,.d,.e{fill-rule:evenodd;}.c{fill:#00a4e0;}.d{fill:#ef4123;}</style></defs><g transform="translate(-472.5 -567.735)"><rect class="a" width="46" height="31" rx="2" transform="translate(473 568.235)"/><path class="b" d="M12.437,3.049a3.786,3.786,0,0,1,1.214-.2,3.841,3.841,0,0,1,3.753,3.1l2.626-.541A6.528,6.528,0,0,0,13.651.143,6.442,6.442,0,0,0,11.588.48Z" transform="translate(470.898 577.036)"/><path class="c" d="M2.281,14.27l1.775-2.028a3.9,3.9,0,0,1,0-5.8L2.279,4.418a6.624,6.624,0,0,0,0,9.853" transform="translate(477.955 574.413)"/><path class="d" d="M17.4,19.173a3.841,3.841,0,0,1-3.752,3.093,3.784,3.784,0,0,1-1.215-.2l-.85,2.569a6.432,6.432,0,0,0,2.066.338,6.529,6.529,0,0,0,6.378-5.258Z" transform="translate(470.902 565.36)"/><path class="e" d="M47.15,11.946a2.3,2.3,0,0,1-2.879.31l-.869,1.4a3.934,3.934,0,0,0,4.889-.526Zm-3.958-1.439a2.146,2.146,0,0,1-.014-.285A2.35,2.35,0,0,1,45.552,7.9a2.317,2.317,0,0,1,1.749.838Zm2.385-4.263a4.023,4.023,0,0,0-3.388,6.2l7.194-3.107a3.984,3.984,0,0,0-3.806-3.1Zm6.063-1.809v7.751l1.331.558-.63,1.529-1.316-.553a1.5,1.5,0,0,1-.648-.55,1.745,1.745,0,0,1-.254-.962V4.436Zm4.8,3.582a2.3,2.3,0,0,1,.741-.121,2.344,2.344,0,0,1,2.29,1.89l1.6-.33a3.985,3.985,0,0,0-3.893-3.213,3.93,3.93,0,0,0-1.259.206Zm-1.891,5.248,1.083-1.238a2.379,2.379,0,0,1,0-3.538L54.545,7.252a4.043,4.043,0,0,0,0,6.014m4.922-2.533a2.345,2.345,0,0,1-2.29,1.888,2.314,2.314,0,0,1-.742-.122l-.519,1.568a3.928,3.928,0,0,0,1.261.207,3.986,3.986,0,0,0,3.893-3.209Z" transform="translate(452.518 574.402)"/></g></svg>