<svg xmlns="http://www.w3.org/2000/svg" width="47" height="32" viewBox="0 0 47 32"><defs><style>.a,.b{fill:#fff;}.a{stroke:#c1c4cc;}.c{fill:#0690ff;}</style></defs><g transform="translate(-323.5 -567.735)"><rect class="a" width="46" height="31" rx="2" transform="translate(324 568.235)"/><path class="b" d="M24.734,24.734H0V0H24.734V24.734Z" transform="translate(334.822 571.327)"/><path class="c" d="M24.734,24.734V20.815H21.75l-1.536-1.7-1.544,1.7H8.831V12.9H5.656L9.595,3.984h3.8l1.356,3.054V3.984h4.7l.816,2.3.822-2.3h3.645V0H0V24.734Zm-2.481-4.91h2.481l-3.282-3.481L24.734,12.9H22.292l-2.027,2.215L18.257,12.9H15.776l3.263,3.461-3.263,3.461h2.413l2.037-2.235,2.027,2.235Zm.581-3.478,1.9,2.022V14.34l-1.9,2.005ZM11.771,18.221V17.144h3.906V15.581H11.771V14.5h4V12.9H9.882v6.922h5.893v-1.6ZM22.865,11.9h1.869V4.975H21.827L20.274,9.286,18.731,4.975H15.775V11.9h1.869V7.052l1.78,4.845h1.661l1.78-4.855V11.9Zm-9.216,0h2.126L12.72,4.975H10.287L7.231,11.9H9.308l.574-1.384h3.184l.583,1.384ZM12.413,8.96H10.534L11.473,6.7l.939,2.264Z" transform="translate(334.822 571.327)"/></g></svg>