<svg xmlns="http://www.w3.org/2000/svg" width="48" height="32" viewBox="0 0 48 32"><defs><style>.a{fill:#fff;stroke:#c1c4cc;}.b{fill:#939598;}.c{fill:#32bcad;}</style></defs><g transform="translate(-501 -1113)"><rect class="a" width="47" height="31" rx="2" transform="translate(501.5 1113.5)"/><g transform="translate(573.683 1300.765)"><g transform="translate(-52.283 -175.96)"><path class="b" d="M84.638-147.079a.238.238,0,0,1-.238-.238v-7.725a2.815,2.815,0,0,1,2.811-2.811l2.281,0a2.812,2.812,0,0,1,2.8,2.808v1.644a2.815,2.815,0,0,1-2.811,2.811H86.26a.238.238,0,0,1-.238-.238.238.238,0,0,1,.238-.238h3.223a2.338,2.338,0,0,0,2.336-2.336v-1.644a2.336,2.336,0,0,0-2.327-2.332l-2.281,0a2.338,2.338,0,0,0-2.335,2.336v7.725A.238.238,0,0,1,84.638-147.079Zm10.1-3.473a.238.238,0,0,1-.238-.238v-5.77a.819.819,0,0,0-.818-.818h-.989a.238.238,0,0,1-.238-.238.238.238,0,0,1,.238-.238h.989a1.3,1.3,0,0,1,1.294,1.294v5.77A.238.238,0,0,1,94.74-150.552Z" transform="translate(-84.4 157.854)"/></g><g transform="translate(-42.687 -178)"><path class="c" d="M179.692-176.616l-.449-.449a.285.285,0,0,1,0-.4l.448-.448a.285.285,0,0,1,.4,0l.448.448a.285.285,0,0,1,0,.4l-.449.449a.285.285,0,0,1-.4,0Z" transform="translate(-179.16 178)"/></g><g transform="translate(-40.283 -175.965)"><path class="b" d="M204.125-150.648h-.981a.238.238,0,0,1-.238-.238.238.238,0,0,1,.238-.238h.981a1.654,1.654,0,0,0,1.177-.488l2.295-2.295a.993.993,0,0,1,.707-.293.992.992,0,0,1,.706.293l2.287,2.287a1.654,1.654,0,0,0,1.177.488h.8a.238.238,0,0,1,.238.238.238.238,0,0,1-.238.238h-.8a2.127,2.127,0,0,1-1.514-.627l-2.287-2.287a.52.52,0,0,0-.37-.153.52.52,0,0,0-.37.153l-2.295,2.295A2.127,2.127,0,0,1,204.125-150.648Zm4.179-3.706a.993.993,0,0,1-.707-.293l-2.295-2.295a1.654,1.654,0,0,0-1.177-.488h-.981a.238.238,0,0,1-.238-.238.238.238,0,0,1,.238-.238h.981a2.127,2.127,0,0,1,1.514.627l2.295,2.295a.52.52,0,0,0,.37.153.52.52,0,0,0,.37-.153l2.287-2.287a2.127,2.127,0,0,1,1.514-.627h.8a.238.238,0,0,1,.238.238.238.238,0,0,1-.238.238h-.8a1.655,1.655,0,0,0-1.177.488l-2.287,2.287A.992.992,0,0,1,208.3-154.354Z" transform="translate(-202.906 157.905)"/></g><g transform="translate(-65.139 -170.001)"><path class="c" d="M-35.323-96.49a1.832,1.832,0,0,1-1.3-.54l-1.883-1.883a.358.358,0,0,0-.495,0l-1.89,1.89a1.833,1.833,0,0,1-1.3.54h-.371l2.384,2.384a1.907,1.907,0,0,0,2.7,0L-35.1-96.49Z" transform="translate(42.568 99.011)"/></g><g transform="translate(-65.139 -177.081)"><path class="c" d="M-42.2-165.988a1.833,1.833,0,0,1,1.3.54l1.889,1.89a.35.35,0,0,0,.495,0l1.883-1.883a1.833,1.833,0,0,1,1.3-.54h.227l-2.391-2.391a1.907,1.907,0,0,0-2.7,0l-2.384,2.384Z" transform="translate(42.568 168.931)"/></g><g transform="translate(-67.683 -173.605)"><path class="c" d="M-55.69-133.146l-1.445-1.445a.274.274,0,0,1-.1.021h-.657a1.3,1.3,0,0,0-.912.378l-1.883,1.883a.9.9,0,0,1-.639.264.9.9,0,0,1-.639-.264l-1.89-1.89a1.3,1.3,0,0,0-.912-.378h-.808a.272.272,0,0,1-.1-.02l-1.451,1.451a1.907,1.907,0,0,0,0,2.7L-65.673-129a.274.274,0,0,1,.1-.02h.808a1.3,1.3,0,0,0,.912-.378l1.89-1.889a.925.925,0,0,1,1.278,0l1.883,1.882a1.3,1.3,0,0,0,.912.378h.657a.275.275,0,0,1,.1.021l1.445-1.445a1.907,1.907,0,0,0,0-2.7Z" transform="translate(67.683 134.597)"/></g></g></g></svg>