<svg xmlns="http://www.w3.org/2000/svg" width="47.41" height="31.611" viewBox="0 0 47.41 31.611"><defs><style>.a{fill:#fff;stroke:#c1c4cc;}</style></defs><g transform="translate(-620.5 -624.735)"><rect class="a" width="46.41" height="30.611" rx="2" transform="translate(621 625.235)"/><path d="M14.321,2.052a2.632,2.632,0,0,0,.6-1.871,2.585,2.585,0,0,0-1.717.893,2.464,2.464,0,0,0-.615,1.8,2.156,2.156,0,0,0,1.731-.82" transform="translate(618.822 633.321)"/><path d="M7.736,7.315c-.956-.057-1.769.545-2.226.545s-1.156-.516-1.912-.5A2.818,2.818,0,0,0,1.2,8.821C.174,10.6.93,13.24,1.929,14.689c.485.717,1.07,1.506,1.84,1.478.728-.029,1.013-.474,1.9-.474s1.141.474,1.912.459c.8-.014,1.3-.717,1.784-1.435a6.384,6.384,0,0,0,.8-1.65A2.6,2.6,0,0,1,8.606,10.7,2.657,2.657,0,0,1,9.862,8.477,2.729,2.729,0,0,0,7.736,7.315" transform="translate(626.002 629.007)"/><path d="M4.673.08A3.368,3.368,0,0,1,8.2,3.615a3.406,3.406,0,0,1-3.577,3.55h-2.3v3.677H.658V.08ZM2.321,5.763H4.228A2.01,2.01,0,0,0,6.5,3.623,2,2,0,0,0,4.236,1.49H2.321Z" transform="translate(638.596 634.243)"/><path d="M20.793,12.988c0-1.38,1.047-2.17,2.976-2.29l2.071-.127v-.6c0-.873-.571-1.35-1.588-1.35a1.46,1.46,0,0,0-1.573,1.1h-1.5c.045-1.395,1.351-2.409,3.117-2.409,1.9,0,3.139,1,3.139,2.551v5.355H25.9v-1.29h-.037A2.736,2.736,0,0,1,23.413,15.3,2.357,2.357,0,0,1,20.793,12.988Zm5.047-.694v-.6l-1.848.119c-1.039.067-1.581.455-1.581,1.134,0,.656.564,1.082,1.447,1.082A1.816,1.816,0,0,0,25.84,12.294Z" transform="translate(626.414 629.867)"/><path d="M40,18.245v-1.29a4.87,4.87,0,0,0,.49.03,1.325,1.325,0,0,0,1.4-1.119l.148-.477L39.232,7.558h1.737l1.959,6.354h.037l1.959-6.354h1.692L43.7,15.784c-.668,1.887-1.432,2.506-3.05,2.506A4.529,4.529,0,0,1,40,18.245Z" transform="translate(615.258 629.719)"/></g></svg>