<svg xmlns="http://www.w3.org/2000/svg" width="47" height="32" viewBox="0 0 47 32"><defs><style>.a{fill:#fff;stroke:#c1c4cc;}.b{fill:#3c4043;}.c{fill:#4285f4;}.d{fill:#34a853;}.e{fill:#fabb05;}.f{fill:#e94235;}.g{fill:none;fill-rule:evenodd;}</style></defs><g transform="translate(-546.5 -567.735)"><rect class="a" width="46" height="31" rx="2" transform="translate(547 568.235)"/><path class="b" d="M37.206,3.507V6.663h1.946a1.537,1.537,0,0,0,1.15-.468,1.539,1.539,0,0,0,0-2.21,1.518,1.518,0,0,0-1.15-.479H37.206Zm0,4.267v3.661H36.044V2.4h3.084a2.787,2.787,0,0,1,2,.782,2.514,2.514,0,0,1,.835,1.906A2.5,2.5,0,0,1,41.124,7a2.781,2.781,0,0,1-2,.77H37.206Zm5.927,1.768a.927.927,0,0,0,.386.757,1.423,1.423,0,0,0,.9.3,1.855,1.855,0,0,0,1.308-.542A1.7,1.7,0,0,0,46.3,8.784a2.392,2.392,0,0,0-1.516-.429,1.969,1.969,0,0,0-1.181.342,1.009,1.009,0,0,0-.474.845Zm1.5-4.495a2.888,2.888,0,0,1,2.035.688,2.445,2.445,0,0,1,.745,1.887v3.812H46.305v-.858h-.05a2.221,2.221,0,0,1-1.922,1.06,2.5,2.5,0,0,1-1.712-.606,1.935,1.935,0,0,1-.689-1.515,1.837,1.837,0,0,1,.727-1.527A3.065,3.065,0,0,1,44.6,7.42,3.431,3.431,0,0,1,46.3,7.8V7.533a1.32,1.32,0,0,0-.48-1.028A1.648,1.648,0,0,0,44.7,6.082a1.781,1.781,0,0,0-1.542.821l-1.023-.645a2.856,2.856,0,0,1,2.5-1.212Zm9.162.2-3.88,8.912h-1.2l1.441-3.118L47.607,5.249h1.264l1.845,4.444h.025l1.795-4.444Z" transform="translate(531.932 576.426)"/><path class="c" d="M18.969,12.592a6.15,6.15,0,0,0-.09-1.056h-4.9v2h2.809a2.4,2.4,0,0,1-1.039,1.578v1.3h1.676a5.078,5.078,0,0,0,1.547-3.821" transform="translate(545.471 570.819)"/><path class="d" d="M6.6,20.733a4.982,4.982,0,0,0,3.446-1.253l-1.676-1.3a3.154,3.154,0,0,1-4.689-1.647H1.956v1.338A5.2,5.2,0,0,0,6.6,20.734" transform="translate(552.846 567.752)"/><path class="e" d="M2.8,11.254a3.118,3.118,0,0,1,0-1.988V7.928H1.076a5.182,5.182,0,0,0,0,4.663L2.8,11.253Z" transform="translate(553.725 573.032)"/><path class="f" d="M6.6,2.579A2.819,2.819,0,0,1,8.6,3.358h0l1.484-1.482A4.993,4.993,0,0,0,6.6.524,5.2,5.2,0,0,0,1.958,3.385L3.685,4.723A3.11,3.11,0,0,1,6.6,2.579" transform="translate(552.844 577.575)"/><path class="g" d="M0,0H31.91V13.913H0Z" transform="translate(554.045 577.896)"/></g></svg>