<svg xmlns="http://www.w3.org/2000/svg" xmlns:xlink="http://www.w3.org/1999/xlink" width="46.966" height="32" viewBox="0 0 46.966 32"><defs><style>.a,.e{fill:#fff;}.a,.b,.c,.d{stroke:#c1c4cc;}.b{fill:url(#a);}.c{fill:url(#b);}.d{fill:url(#c);}.e{fill-rule:evenodd;}</style><linearGradient id="a" y1="0.432" x2="1" y2="0.432" gradientUnits="objectBoundingBox"><stop offset="0" stop-color="#1d2970"/><stop offset="1" stop-color="#006dba"/></linearGradient><linearGradient id="b" y1="0.432" x2="1" y2="0.432" gradientUnits="objectBoundingBox"><stop offset="0" stop-color="#6f2b2f"/><stop offset="1" stop-color="#e30138"/></linearGradient><linearGradient id="c" y1="0.432" x2="1" y2="0.432" gradientUnits="objectBoundingBox"><stop offset="0" stop-color="#007b40"/><stop offset="1" stop-color="#55b330"/></linearGradient></defs><g transform="translate(-322.5 -624.735)"><rect class="a" width="45.966" height="31" rx="2" transform="translate(323 625.235)"/><rect class="b" width="8.655" height="20.896" transform="translate(332.164 630.298)"/><rect class="c" width="9.044" height="21.091" transform="translate(341.403 630.103)"/><rect class="d" width="9.044" height="20.994" transform="translate(350.837 630.298)"/><path class="e" d="M31.262,19.227a4.833,4.833,0,0,1-4.825,4.843H.369c-.017,0-.106.013-.12,0s0-.1,0-.122V5.028A5.035,5.035,0,0,1,.766,2.741,4.87,4.87,0,0,1,3.578.319,5.273,5.273,0,0,1,5.231.081h26.03V18.462q0,.368,0,.736v.029M2.043,13.736c-.061-.029-.061-.017-.071-.06a.407.407,0,0,1,0-.089V5.593c0-.2-.005-.393,0-.589A3.485,3.485,0,0,1,3.2,2.5a3.444,3.444,0,0,1,1.859-.79A12.1,12.1,0,0,1,6.284,1.7h4.059c.019,0,.115-.013.128,0s0,.057,0,.066V18.036c0,.32,0,.64,0,.96a3.5,3.5,0,0,1-1.124,2.556,3.44,3.44,0,0,1-1.859.872,9.6,9.6,0,0,1-1.262.031H2.038c-.066,0-.053.014-.066-.025a.367.367,0,0,1,0-.1v-7.17a12.791,12.791,0,0,0,2.063.354,13.836,13.836,0,0,0,2.025.063,5,5,0,0,0,2.756-.772,2.261,2.261,0,0,0,.742-.934,2.909,2.909,0,0,0,.2-1.132q0-.527,0-1.055V8.8c0-.038.006-.04-.017-.053s-.1,0-.124,0H6.948c-.038,0-.134-.015-.149.012s0,.089,0,.115v3.646c0,.08,0,.16,0,.24a1.693,1.693,0,0,1-.523,1.269,2.253,2.253,0,0,1-1.735.429,6.733,6.733,0,0,1-2.025-.515c-.16-.066-.317-.137-.473-.211m9.534-4.109-.071.06V5.792c0-.3-.013-.6.01-.9a3.484,3.484,0,0,1,2.992-3.168A9.278,9.278,0,0,1,15.685,1.7h4.159c.025,0,.147-.014.161,0s0,.063,0,.075V17.795q0,.582,0,1.164A3.506,3.506,0,0,1,18.084,22.1a3.616,3.616,0,0,1-1.631.357H11.792a1.47,1.47,0,0,1-.251,0c-.052-.009-.024.01-.036-.022a.284.284,0,0,1,0-.08V14.467a4.527,4.527,0,0,0,1.993.918,9.23,9.23,0,0,0,1.656.2,12.9,12.9,0,0,0,1.636-.038,15.254,15.254,0,0,0,1.652-.248q.208-.042.416-.089c.034-.008.172-.019.19-.046s0-.1,0-.121V13.7a7.363,7.363,0,0,1-1.859.661,4.147,4.147,0,0,1-2.424-.125,2.18,2.18,0,0,1-1.3-1.862,2.393,2.393,0,0,1,.9-2.241,3.558,3.558,0,0,1,2.594-.387,6.829,6.829,0,0,1,1.855.59q.117.055.232.114V9.108c0-.021.013-.1,0-.121s-.154-.038-.19-.046l-.2-.045a16,16,0,0,0-1.64-.269,12.845,12.845,0,0,0-1.627-.066,9.95,9.95,0,0,0-1.647.157,5.1,5.1,0,0,0-1.914.725q-.129.086-.249.184M22.723,12.5h1.314c.22,0,.441,0,.661,0a.963.963,0,0,1,.661.231.929.929,0,0,1,.287.826.9.9,0,0,1-.428.642,1.146,1.146,0,0,1-.611.126h-1.65c-.052,0-.216.022-.233-.017a.366.366,0,0,1,0-.113V12.5ZM25.4,10.431a.861.861,0,0,1-.208.779.912.912,0,0,1-.657.258c-.2,0-.4,0-.594,0H22.878c-.029,0-.124.016-.146,0s-.009-.145-.009-.182V9.906a.343.343,0,0,1,0-.1c.012-.027.019-.018.059-.018H24.3c.112,0,.225,0,.337,0a.856.856,0,0,1,.607.31.821.821,0,0,1,.158.333ZM29.525,1.7h.014V18.525c0,.156,0,.312,0,.468a3.5,3.5,0,0,1-1.394,2.783,3.557,3.557,0,0,1-2.174.68H21.319c-.042,0-.257.025-.28,0-.009-.011,0-.069,0-.083V15.457c0-.039-.008-.043.019-.055a.6.6,0,0,1,.178,0H26.05a5.9,5.9,0,0,0,.74-.025,2.261,2.261,0,0,0,1.339-.6,1.562,1.562,0,0,0,.3-1.754,1.9,1.9,0,0,0-1.264-.926,3.043,3.043,0,0,0-.49-.084c-.011,0-.066,0-.073-.006-.031-.035.024-.041.039-.046.1-.033.218-.042.324-.074a1.639,1.639,0,0,0,1.157-1.119,1.5,1.5,0,0,0-.533-1.573,2.339,2.339,0,0,0-1.206-.418c-.435-.039-.874-.022-1.309-.022H21.092c-.074,0-.053-.02-.053-.09V5.366a4.448,4.448,0,0,1,.076-.933,3.455,3.455,0,0,1,3.023-2.719c.485-.049.985-.017,1.472-.017h3.916Z" transform="translate(330.265 628.686)"/></g></svg>