<svg xmlns="http://www.w3.org/2000/svg" width="48" height="32" viewBox="0 0 48 32"><defs><style>.a{fill:#fff;stroke:#c1c4cc;}.b{fill:#1b458e;}.b,.c,.d,.e{fill-rule:evenodd;}.c{fill:none;}.d{fill:#eee;}</style></defs><g transform="translate(-431.5 -1113.096)"><rect class="a" width="47" height="31" rx="2" transform="translate(432 1113.596)"/><g transform="translate(421.043 1110.854)"><g transform="translate(18.428 8.345)"><g transform="translate(0 0)"><g transform="translate(5.517 0)"><path class="b" d="M15.521.045c3.547,0,5.992,3.014,5.992,6.5A6.214,6.214,0,0,1,15.521,13H7.058A6.747,6.747,0,0,1,.513,6.537,6.829,6.829,0,0,1,7.058.045h8.463" transform="translate(-0.513 -0.045)"/><path class="c" d="M15.521.045c3.547,0,5.992,3.014,5.992,6.5A6.214,6.214,0,0,1,15.521,13H7.058A6.747,6.747,0,0,1,.513,6.537,6.829,6.829,0,0,1,7.058.045Z" transform="translate(-0.513 -0.045)"/><path class="d" d="M13.627,6.744a6.652,6.652,0,0,1-6.321,6.293A6.662,6.662,0,0,1,.948,6.759,6.727,6.727,0,0,1,7.306.429a6.667,6.667,0,0,1,6.321,6.315" transform="translate(-0.761 -0.264)"/><path class="c" d="M13.627,6.744a6.652,6.652,0,0,1-6.321,6.293A6.662,6.662,0,0,1,.948,6.759,6.727,6.727,0,0,1,7.306.429a6.667,6.667,0,0,1,6.321,6.315Z" transform="translate(-0.761 -0.264)"/><path class="b" d="M21.2,10.219a3.777,3.777,0,0,1-2.615,3.665V6.543A3.851,3.851,0,0,1,21.2,10.219" transform="translate(-10.796 -3.742)"/><path class="c" d="M21.2,10.219a3.777,3.777,0,0,1-2.615,3.665V6.543A3.851,3.851,0,0,1,21.2,10.219Z" transform="translate(-10.796 -3.742)"/><path class="b" d="M6.68,10.225A3.777,3.777,0,0,1,9.3,6.56V13.9a3.859,3.859,0,0,1-2.615-3.68" transform="translate(-4.022 -3.752)"/><path class="c" d="M6.68,10.225A3.777,3.777,0,0,1,9.3,6.56V13.9a3.859,3.859,0,0,1-2.615-3.68Z" transform="translate(-4.022 -3.752)"/></g><path class="e" d="M.35,38.787a.649.649,0,0,0,.684-.581l.96-3.435a.951.951,0,0,0,.049-.26c0-.206-.148-.325-.667-.325l.033-.115H3.571a1.953,1.953,0,0,1,2.1,1.981,3.032,3.032,0,0,1-3.122,2.855H.313l.037-.119Zm1.4-.577a.628.628,0,0,0-.029.177c0,.218.157.288.474.288h.284A2.487,2.487,0,0,0,4.865,35.94C4.865,34.9,4.383,34.3,3.3,34.3c-.437,0-.5.14-.634.63L1.755,38.21Zm5.515-.087c-.292.371-.688.853-1.182.853a.346.346,0,0,1-.342-.383,1.242,1.242,0,0,1,.041-.3l.577-2.043a.867.867,0,0,0,.054-.2c0-.124-.091-.2-.482-.2l.037-.119a11.223,11.223,0,0,0,1.116-.189c.049,0,.078.012.078.049a1.014,1.014,0,0,1-.037.14L6.41,38.144a1.644,1.644,0,0,0-.045.264c0,.107.037.173.148.173.181,0,.465-.325.647-.556l.111.1Zm.161-3.571a.393.393,0,0,1-.383.383.379.379,0,0,1-.371-.379.384.384,0,0,1,.379-.367.371.371,0,0,1,.375.362Zm.457,1.726a.642.642,0,0,0,.037-.189c0-.231-.181-.239-.49-.239l.037-.119a6.362,6.362,0,0,0,.774-.115c.2-.045.321-.074.35-.074.049,0,.078.012.078.049s-.049.152-.07.235L8.259,37.04l.016.012A4.571,4.571,0,0,1,9.07,36.1a1.9,1.9,0,0,1,1.063-.556c.321,0,.445.136.445.449a7.115,7.115,0,0,1-.231,1l-.321,1.157a.908.908,0,0,0-.045.264c0,.078.037.173.124.173.177,0,.424-.354.593-.622l.115.107c-.255.391-.605.91-1.1.91a.353.353,0,0,1-.35-.383,1.3,1.3,0,0,1,.049-.3L9.8,36.88a5.376,5.376,0,0,0,.165-.746.2.2,0,0,0-.194-.194c-.367,0-1.022.663-1.409,1.343a6.4,6.4,0,0,0-.61,1.623H7.114l.774-2.628Zm5.491,1.891a2.1,2.1,0,0,1-1.545.807c-.725,0-1.022-.507-1.022-1.157a2.446,2.446,0,0,1,2.138-2.278c.362,0,.7.107.7.527,0,.89-1.442,1.269-2.142,1.355a2.073,2.073,0,0,0-.045.486c0,.441.206.741.671.741a1.779,1.779,0,0,0,1.137-.585l.1.1Zm-1.833-.927c.651-.078,1.528-.486,1.528-1.24a.25.25,0,0,0-.284-.28c-.585,0-1.153,1.022-1.244,1.52Zm2.657-.659a2.044,2.044,0,0,0,.07-.441c0-.292-.21-.292-.465-.292l.037-.119a7.955,7.955,0,0,0,1.034-.169.677.677,0,0,1,.095-.021c.037,0,.045.029.045.066a3.9,3.9,0,0,1-.087.4l-.309,1.03h.016c.276-.494.861-1.491,1.335-1.491a.256.256,0,0,1,.247.288c0,.276-.124.515-.342.515-.14,0-.255-.144-.342-.239a5.462,5.462,0,0,0-1.314,2.5l-.087.3H13.56l.643-2.323Zm3.942.045h-.124c-.016-.416-.21-.906-.7-.906a.4.4,0,0,0-.457.4c0,.276.247.544.486.84a1.632,1.632,0,0,1,.482.993,1.043,1.043,0,0,1-1.137,1.017,4.156,4.156,0,0,1-.811-.136.142.142,0,0,0-.128.136h-.124l.136-1.186h.124c.045.465.2,1.009.766,1.009a.532.532,0,0,0,.589-.564c0-.334-.132-.494-.457-.906a1.722,1.722,0,0,1-.511-.984.89.89,0,0,1,.956-.8,1.533,1.533,0,0,1,.437.074,1.343,1.343,0,0,0,.3.078.2.2,0,0,0,.189-.124.033.033,0,0,1,.021-.029h.124l-.161,1.087ZM24,35.413h-.119v-.169c0-.651-.292-1.042-1.116-1.042-1.351,0-2.327,1.668-2.327,2.867a1.432,1.432,0,0,0,1.438,1.619,2.384,2.384,0,0,0,1.73-.853l.132.1a2.663,2.663,0,0,1-2.1,1.067,1.883,1.883,0,0,1-2.006-1.957,3.244,3.244,0,0,1,3.18-3.077,2.339,2.339,0,0,1,.692.1,2.1,2.1,0,0,0,.387.1c.165,0,.218-.033.284-.169h.119L24,35.413Zm1.392,2.731c-.264.321-.663.832-1.125.832-.239,0-.35-.136-.35-.375A1.552,1.552,0,0,1,24,38.1l.931-3.382a2.838,2.838,0,0,0,.095-.482c0-.144-.041-.189-.465-.2l.021-.124a4.585,4.585,0,0,0,.8-.111,1.76,1.76,0,0,1,.33-.07c.058,0,.078.033.078.086a1.408,1.408,0,0,1-.049.194L24.608,38a1.229,1.229,0,0,0-.07.379c0,.152.066.2.161.2.152,0,.486-.42.577-.535l.115.1Zm2.805,0a1.177,1.177,0,0,0-.045.264.158.158,0,0,0,.152.173c.181,0,.453-.325.634-.556l.111.1c-.28.371-.671.853-1.17.853a.353.353,0,0,1-.35-.383,1.328,1.328,0,0,1,.054-.3l.3-1.022h-.012c-.338.564-1.133,1.705-1.874,1.705a.442.442,0,0,1-.465-.49,1.809,1.809,0,0,1,.066-.461l.449-1.681a1.821,1.821,0,0,0,.074-.3c0-.136-.086-.189-.494-.2l.033-.119a11.034,11.034,0,0,0,1.133-.189c.049,0,.078.012.078.049a2.711,2.711,0,0,1-.078.3l-.577,2.15a1.772,1.772,0,0,0-.066.334.193.193,0,0,0,.21.21c.659,0,1.664-1.627,1.957-2.966h.581l-.7,2.529Zm1.829-3.662a.863.863,0,0,0,.021-.157c0-.218-.181-.239-.437-.288l.021-.124a4.722,4.722,0,0,0,1-.148.563.563,0,0,1,.115-.033c.037,0,.066.012.066.07,0,.037-.037.152-.045.2l-.61,2.228h0a1.4,1.4,0,0,1,1.211-.688.977.977,0,0,1,1,1.079,2.514,2.514,0,0,1-2.4,2.356c-.453,0-.972-.128-.972-.4a1.228,1.228,0,0,1,.049-.231l.972-3.86Zm-.453,3.963a.606.606,0,0,0-.021.119c0,.189.465.235.552.235.906,0,1.611-1.211,1.611-2.08,0-.441-.157-.853-.663-.853a1.387,1.387,0,0,0-1.108,1.087l-.371,1.491Z" transform="translate(-0.313 -19.212)"/></g></g></g></g></svg>