<svg xmlns="http://www.w3.org/2000/svg" width="48" height="32" viewBox="0 0 48 32"><defs><style>.a,.c{fill:#fff;}.a{stroke:#c1c4cc;}.b{fill:#b82126;}</style></defs><g transform="translate(-432 -1170)"><rect class="a" width="47" height="31" rx="2" transform="translate(432.5 1170.5)"/><g transform="translate(437 1178)"><path class="b" d="M10.319,0h-3.9C4.7.081,3.295.775,2.889,2.2c-.212.746-.328,1.565-.494,2.338C1.552,8.472.806,12.511,0,16.362H30.33c2.345,0,3.955-.5,4.39-2.356.2-.865.4-1.844.589-2.794.754-3.7,1.508-7.406,2.28-11.212H10.319"/><path class="c" d="M67.654,71.344c-.421.412-1.6.529-1.481-.456.1-.818.99-.991,1.955-.873A2.428,2.428,0,0,1,67.654,71.344Zm-1.329-3.189c-.04.226-.1.43-.152.645.482-.121,1.981-.491,2.126.152a1.125,1.125,0,0,1-.095.607c-1.356-.128-2.462.1-2.753,1.063a1.2,1.2,0,0,0,.437,1.462A1.816,1.816,0,0,0,68,71.5a2.477,2.477,0,0,0-.057.607h.7a10.9,10.9,0,0,1,.209-1.822,7.192,7.192,0,0,0,.228-1.481C69.017,67.759,67.291,68.127,66.325,68.155Zm7.042,3.512c-.55.012-.823-.328-.835-.892-.022-.988.411-2.085,1.291-2.183a2.14,2.14,0,0,1,1.006.152C74.553,69.853,74.653,71.639,73.367,71.667Zm1.822-5.22c-.07.613-.163,1.2-.285,1.765-2-.634-3.23.839-3.208,2.658a1.429,1.429,0,0,0,.285.949,1.846,1.846,0,0,0,2.012.171,1.416,1.416,0,0,0,.285-.285c.053-.066.137-.24.152-.19a4.252,4.252,0,0,0-.076.589h.74a51.7,51.7,0,0,1,.911-5.657Zm-20.9,4.916c-.437.463-1.51.455-1.594-.323A3.869,3.869,0,0,1,52.847,70c.063-.355.109-.695.171-1.006.43-.525,1.694-.589,1.822.285A2.9,2.9,0,0,1,54.29,71.363Zm.645-3.208a2.154,2.154,0,0,0-1.9.345c0,.013-.009.015-.019.016l.019-.016v0c.006-.127.051-.215.057-.342h-.7c-.293,1.947-.64,3.84-1.006,5.714H52.2c.118-.73.2-1.5.361-2.183.186.719,1.4.581,1.917.3C55.54,71.416,56.357,68.689,54.935,68.155Zm3.872,1.367H56.891a1.131,1.131,0,0,1,1.082-.949C58.561,68.55,58.982,68.789,58.808,69.522Zm-.778-1.443a2.131,2.131,0,0,0-1.443.588,3.3,3.3,0,0,0-.683,2.392c.147,1.315,1.784,1.268,3.094.949.022-.231.078-.428.114-.645a2.6,2.6,0,0,1-2.031.133c-.419-.265-.421-.936-.285-1.519.88-.028,1.795-.023,2.676,0a2.806,2.806,0,0,0,.076-1.272C59.363,68.167,58.7,68.027,58.03,68.079Zm-7.175.076c-.022,0-.021.03-.019.057-.18,1.345-.423,2.627-.683,3.891h.816c.2-1.354.421-2.68.7-3.948Zm21.3.019a1.247,1.247,0,0,0-1.557.607c.067-.186.071-.435.133-.626h-.721q-.292,2.034-.7,3.948h.835a8.936,8.936,0,0,1,.19-1.424c.175-1.1.431-2.3,1.709-1.936C72.081,68.558,72.1,68.348,72.152,68.174Zm-9.169,3a1.987,1.987,0,0,1-.076-.759,2.654,2.654,0,0,1,.55-1.519,2,2,0,0,1,1.936-.114c.021-.226.066-.427.095-.645a3.086,3.086,0,0,0-2.7.512,3.242,3.242,0,0,0-.645,2.7c.294.961,1.61,1.014,2.677.645.047-.193.072-.409.114-.607C64.357,71.685,63.243,71.842,62.984,71.173Zm-.455-3.018a1.253,1.253,0,0,0-1.557.664c.06-.206.085-.447.133-.664h-.721c-.176,1.368-.436,2.652-.683,3.948h.816a15.523,15.523,0,0,1,.418-2.544,1.138,1.138,0,0,1,1.5-.816C62.444,68.526,62.506,68.361,62.528,68.155ZM49.374,66.56c-.117.757-.248,1.5-.38,2.24-.846.009-1.709.042-2.525-.019.154-.725.265-1.494.418-2.221h-.911c-.326,1.851-.623,3.73-.987,5.543h.93c.146-.93.282-1.869.475-2.753a22.673,22.673,0,0,1,2.506.019c-.157.919-.347,1.8-.494,2.733h.93c.3-1.878.614-3.74.987-5.543Zm2.316.835c.163-.112.372-.623.133-.835a.452.452,0,0,0-.38-.057.459.459,0,0,0-.323.171c-.1.14-.2.564-.038.721s.5.071.607,0Z" transform="translate(-41.686 -61.568)"/></g></g></svg>