<svg xmlns="http://www.w3.org/2000/svg" xmlns:xlink="http://www.w3.org/1999/xlink" width="48" height="32" viewBox="0 0 48 32"><defs><style>.a{fill:#fff;stroke:#c1c4cc;}.b{fill:url(#a);}.c{fill:#e7792b;}.c,.d{fill-rule:evenodd;}.d{fill:#1a1918;}</style><radialGradient id="a" cx="1" cy="1" r="1.136" gradientUnits="objectBoundingBox"><stop offset="0" stop-color="#f59900"/><stop offset="0.21" stop-color="#f39501"/><stop offset="0.908" stop-color="#ce3c0b"/><stop offset="1" stop-color="#a4420a"/></radialGradient></defs><g transform="translate(-397.5 -567.735)"><rect class="a" width="47" height="31" rx="2" transform="translate(398 568.235)"/><ellipse class="b" cx="3.565" cy="3.517" rx="3.565" ry="3.517" transform="translate(419.898 579.257)"/><path class="c" d="M29,60.479H62.293a1.545,1.545,0,0,0,1.53-1.562V48S51.525,56.621,29,60.479Z" transform="translate(380.697 538.29)"/><path class="d" d="M10.129,28.9H8.242v6.5h1.877a3.461,3.461,0,0,0,2.351-.751A3.247,3.247,0,0,0,10.129,28.9Zm1.5,4.884a2.459,2.459,0,0,1-1.759.517H9.526V30h.345a2.4,2.4,0,0,1,1.759.526,2.176,2.176,0,0,1,.712,1.618,2.217,2.217,0,0,1-.712,1.638Z" transform="translate(393.434 550.507)"/><path class="d" d="M23.809,28.9h1.286v6.5H23.809Z" transform="translate(383.883 550.507)"/><path class="d" d="M31.047,31.22c-.771-.282-1-.468-1-.819,0-.41.4-.721.958-.721a1.335,1.335,0,0,1,1.037.527l.673-.869a2.906,2.906,0,0,0-1.937-.721,1.925,1.925,0,0,0-2.055,1.863c0,.9.414,1.354,1.621,1.783a5.155,5.155,0,0,1,.889.37.776.776,0,0,1,.385.673.934.934,0,0,1-1,.917,1.522,1.522,0,0,1-1.4-.867l-.831.789a2.57,2.57,0,0,0,2.282,1.238,2.112,2.112,0,0,0,2.273-2.135c0-1.033-.433-1.5-1.9-2.028" transform="translate(381.074 550.677)"/><path class="d" d="M41.223,31.917A3.39,3.39,0,0,0,44.7,35.31a3.6,3.6,0,0,0,1.612-.379V33.439a2.068,2.068,0,0,1-1.552.712,2.139,2.139,0,0,1-2.214-2.243,2.151,2.151,0,0,1,3.765-1.5V28.914a3.319,3.319,0,0,0-1.581-.4,3.444,3.444,0,0,0-3.509,3.4" transform="translate(373.199 550.74)"/><path class="d" d="M75.748,33.262,73.991,28.9h-1.4l2.8,6.669h.692L78.922,28.9H77.528l-1.78,4.367" transform="translate(353.957 550.507)"/><path class="d" d="M90.484,35.4H94.13V34.3H91.769V32.541h2.274v-1.1H91.769V30H94.13V28.9H90.484v6.5" transform="translate(342.977 550.507)"/><path class="d" d="M106.359,30.815c0-1.217-.85-1.92-2.332-1.92H102.12v6.5H103.4V32.785h.168l1.779,2.612h1.581l-2.075-2.739a1.735,1.735,0,0,0,1.5-1.843Zm-2.579,1.074H103.4V29.919h.4c.8,0,1.236.331,1.236.964,0,.654-.436,1.006-1.256,1.006Z" transform="translate(335.836 550.507)"/><path class="d" d="M114.567,29.248c0-.114-.079-.176-.219-.176h-.186v.571h.138v-.222l.162.222h.169l-.191-.236a.157.157,0,0,0,.126-.16Zm-.243.078H114.3v-.149h.025c.068,0,.1.024.1.073s-.036.076-.105.076Z" transform="translate(328.449 550.399)"/><path class="d" d="M113.914,28.519a.5.5,0,1,0,.5.5.5.5,0,0,0-.5-.5Zm0,.908a.409.409,0,1,1,.4-.409.406.406,0,0,1-.4.409Z" transform="translate(328.91 550.738)"/></g></svg>