<svg xmlns="http://www.w3.org/2000/svg" width="46.966" height="32" viewBox="0 0 46.966 32"><defs><style>.a{fill:#fff;stroke:#c1c4cc;}.b{fill:#1428a0;fill-rule:evenodd;}</style></defs><g transform="translate(-472.5 -624.735)"><rect class="a" width="45.966" height="31" rx="2" transform="translate(473 625.235)"/><path class="b" d="M22.567,22.813a1.5,1.5,0,0,1-1.095.466,1.458,1.458,0,0,1-1.137-.447,1.906,1.906,0,0,1-.427-1.317,1.811,1.811,0,0,1,.437-1.269,1.484,1.484,0,0,1,1.117-.453,1.5,1.5,0,0,1,1.114.466,1.876,1.876,0,0,1,.462,1.311,1.735,1.735,0,0,1-.472,1.243M21.5,18.751a2.441,2.441,0,0,0-.773.125,1.435,1.435,0,0,0-.733.535V18.87H18.812v7.359h1.165V23.679a1.5,1.5,0,0,0,.751.518,2.568,2.568,0,0,0,.828.135,2.442,2.442,0,0,0,1.02-.207,2.722,2.722,0,0,0,1.443-1.508,2.855,2.855,0,0,0-.595-3.054,2.612,2.612,0,0,0-1.922-.812" transform="translate(468.713 623.114)"/><path class="b" d="M53.143,22.839l-1.63-3.781H50.266l2.292,5.037-1,2.322h1.226L55.9,19.058H54.645Z" transform="translate(449.494 622.927)"/><path class="b" d="M38.406,22.833a1.458,1.458,0,0,1-1.136.447,1.507,1.507,0,0,1-1.1-.466,1.742,1.742,0,0,1-.472-1.244,1.876,1.876,0,0,1,.463-1.311,1.5,1.5,0,0,1,1.114-.465,1.483,1.483,0,0,1,1.116.453,1.811,1.811,0,0,1,.438,1.269A1.91,1.91,0,0,1,38.406,22.833Zm.341-3.422a1.433,1.433,0,0,0-.732-.534,2.433,2.433,0,0,0-.773-.126,2.615,2.615,0,0,0-1.923.812,2.855,2.855,0,0,0-.594,3.054,2.6,2.6,0,0,0,.568.894,2.644,2.644,0,0,0,.875.615,2.447,2.447,0,0,0,1.02.207,2.565,2.565,0,0,0,.828-.135,1.5,1.5,0,0,0,.75-.519v.555h1.165V18.87H38.747Z" transform="translate(459.117 623.114)"/><path class="b" d="M63.476,4.587h-.024L62.408,1.022H60.726v4.5H61.84l-.063-3.69h.028l1.118,3.69h1.616v-4.5H63.415Z" transform="translate(443.104 633.946)"/><path class="b" d="M13.457,1.023h-2.02L10.6,5.562h1.224l.621-4.121h.026l.6,4.121h1.222Z" transform="translate(473.732 633.946)"/><path class="b" d="M23.584,1.479h.025l.761,4.083h1.149l.757-4.083H26.3l.031,4.083h1.136l-.1-4.538H25.515l-.561,3.471H24.93l-.556-3.471h-1.85l-.1,4.538h1.133Z" transform="translate(466.508 633.946)"/><path class="b" d="M52.461,4.576c0-.045.015-.215.015-.3V1.021H51.325V4.379a1.046,1.046,0,0,1-.01.174.454.454,0,0,1-.871,0,.966.966,0,0,1-.008-.174V1.021H49.287V4.275c0,.085.006.255.011.3.078.847.745,1.12,1.58,1.12s1.506-.273,1.583-1.12" transform="translate(450.094 633.947)"/><path class="b" d="M1.481,1.962a.562.562,0,0,1,0-.237.374.374,0,0,1,.414-.307.388.388,0,0,1,.422.41v.283H3.444v-.32C3.444.8,2.556.648,1.913.648,1.109.648.451.917.328,1.658a1.657,1.657,0,0,0,.011.609c.2.93,1.81,1.2,2.042,1.784a.6.6,0,0,1,.01.337.392.392,0,0,1-.443.306.405.405,0,0,1-.454-.412l0-.44H.276V4.19c0,1.014.795,1.318,1.646,1.318.824,0,1.5-.278,1.6-1.035a2.241,2.241,0,0,0,0-.746C3.332,2.774,1.61,2.495,1.481,1.962" transform="translate(480.039 634.175)"/><path class="b" d="M39.865,5.526c.81,0,1.479-.276,1.586-1.028a2.148,2.148,0,0,0-.006-.739c-.189-.939-1.892-1.218-2.016-1.747a.57.57,0,0,1-.007-.233.371.371,0,0,1,.409-.3.383.383,0,0,1,.419.4V2.16h1.118V1.846c0-.978-.878-1.132-1.511-1.132-.8,0-1.453.261-1.57,1a1.449,1.449,0,0,0,.01.605c.194.921,1.789,1.184,2.02,1.768a.592.592,0,0,1,.01.332.388.388,0,0,1-.438.3.4.4,0,0,1-.45-.406V3.874H38.232v.348c0,1,.788,1.3,1.633,1.3" transform="translate(456.848 634.135)"/><path class="b" d="M75.181,2.817v.667h.464V4.14a1.071,1.071,0,0,1-.011.172.42.42,0,0,1-.462.33.426.426,0,0,1-.466-.33A1.646,1.646,0,0,1,74.7,4.14V2.063a.994.994,0,0,1,.017-.214.424.424,0,0,1,.451-.329.414.414,0,0,1,.454.329,1.019,1.019,0,0,1,.014.172v.254h1.143V2.127a2.229,2.229,0,0,0-.01-.3C76.686.974,75.979.708,75.174.708s-1.488.268-1.587,1.121a2.719,2.719,0,0,0-.02.3v1.91a2.323,2.323,0,0,0,.017.3c.075.823.787,1.121,1.59,1.121s1.522-.3,1.6-1.121c.011-.151.015-.214.015-.3V2.817Z" transform="translate(435.258 634.139)"/></g></svg>