<svg xmlns="http://www.w3.org/2000/svg" width="47" height="32" viewBox="0 0 47 32"><defs><style>.a{fill:#fff;stroke:#c1c4cc;}.b{fill:#009cde;}.b,.c{fill-rule:evenodd;}.c{fill:#003087;}</style></defs><g transform="translate(-546.5 -624.735)"><rect class="a" width="46" height="31" rx="2" transform="translate(547 625.235)"/><path class="b" d="M68.37-45.917c-.145.952-.873.952-1.577.952h-.4l.281-1.778a.221.221,0,0,1,.218-.186h.184c.479,0,.932,0,1.165.273a.885.885,0,0,1,.129.74M68.064-48.4H65.408a.369.369,0,0,0-.365.311l-1.074,6.8a.221.221,0,0,0,.218.256h1.362a.258.258,0,0,0,.255-.218l.3-1.929a.369.369,0,0,1,.364-.311h.84a2.726,2.726,0,0,0,3.022-2.522A2.042,2.042,0,0,0,70-47.724a2.464,2.464,0,0,0-1.935-.678" transform="translate(507.439 684.972)"/><path class="c" d="M19.367-45.917c-.145.952-.873.952-1.577.952h-.4l.281-1.778a.221.221,0,0,1,.218-.186h.184c.479,0,.932,0,1.165.273a.885.885,0,0,1,.129.74M19.061-48.4H16.405a.369.369,0,0,0-.365.311l-1.074,6.8a.221.221,0,0,0,.218.256h1.268a.369.369,0,0,0,.364-.311l.29-1.836a.369.369,0,0,1,.364-.311h.84a2.726,2.726,0,0,0,3.022-2.522A2.042,2.042,0,0,0,21-47.724a2.464,2.464,0,0,0-1.935-.678" transform="translate(537.504 684.972)"/><path class="c" d="M34.781-46.115A1.417,1.417,0,0,1,33.346-44.9a1.074,1.074,0,0,1-.854-.343,1.079,1.079,0,0,1-.2-.892,1.422,1.422,0,0,1,1.425-1.223,1.071,1.071,0,0,1,.848.346,1.093,1.093,0,0,1,.216.9m1.772-2.473H35.281a.221.221,0,0,0-.219.187l-.056.355-.089-.129a1.812,1.812,0,0,0-1.5-.533,2.923,2.923,0,0,0-2.838,2.556,2.4,2.4,0,0,0,.473,1.952,1.99,1.99,0,0,0,1.6.646,2.435,2.435,0,0,0,1.76-.727l-.057.353a.221.221,0,0,0,.219.256H35.72a.369.369,0,0,0,.365-.311l.687-4.349a.221.221,0,0,0-.219-.256" transform="translate(527.949 687.612)"/><path class="b" d="M83.784-46.115A1.417,1.417,0,0,1,82.349-44.9a1.074,1.074,0,0,1-.854-.343,1.078,1.078,0,0,1-.2-.892,1.422,1.422,0,0,1,1.425-1.223,1.071,1.071,0,0,1,.848.346,1.093,1.093,0,0,1,.216.9m1.772-2.473H84.285a.221.221,0,0,0-.219.187l-.056.355-.089-.129a1.811,1.811,0,0,0-1.5-.533,2.923,2.923,0,0,0-2.838,2.556,2.4,2.4,0,0,0,.473,1.952,1.99,1.99,0,0,0,1.6.646,2.435,2.435,0,0,0,1.76-.727l-.057.353a.221.221,0,0,0,.219.256h1.145a.369.369,0,0,0,.365-.311l.687-4.349a.221.221,0,0,0-.219-.256" transform="translate(497.883 687.612)"/><path class="c" d="M54.216-52.851H52.938a.368.368,0,0,0-.305.162L50.87-50.095l-.747-2.493a.369.369,0,0,0-.354-.263H48.513a.221.221,0,0,0-.21.292l1.407,4.128-1.323,1.866a.221.221,0,0,0,.181.349h1.277a.37.37,0,0,0,.3-.158L54.4-52.5a.221.221,0,0,0-.182-.347" transform="translate(517.057 691.876)"/><path class="b" d="M97.245-48.216l-1.09,6.928a.221.221,0,0,0,.218.256h1.1a.369.369,0,0,0,.364-.311l1.074-6.8a.221.221,0,0,0-.219-.256H97.464a.221.221,0,0,0-.219.187" transform="translate(487.693 684.973)"/></g></svg>