<svg xmlns="http://www.w3.org/2000/svg" width="48" height="32" viewBox="0 0 48 32"><defs><style>.a,.c{fill:#fff;}.a{stroke:#c1c4cc;}.b,.d{fill:#161615;}.b,.c{fill-rule:evenodd;}</style></defs><g transform="translate(-501 -1170)"><rect class="a" width="47" height="31" rx="2" transform="translate(501.5 1170.5)"/><g transform="translate(516 1154)"><path class="b" d="M-.142,25H1.492V40.3H-.142V25Z" transform="translate(-5.499)"/><path class="b" d="M7.015,25h.506V40.3H7.015V25Z" transform="translate(-10.507)"/><path class="b" d="M10.172,25h.906V40.3h-.906V25Z" transform="translate(-12.716)"/><path class="b" d="M16.1,25h.506V40.3H16.1V25Z" transform="translate(-16.865)"/><path class="b" d="M18.521,25h.39V40.3h-.39V25Z" transform="translate(-18.559)"/><path class="b" d="M-4.281,25h.506V40.3h-.506V25Z" transform="translate(-2.603)"/><path class="b" d="M-8,25h.906V40.3H-8V25Z"/><path class="b" d="M28.835,25h1.634V40.3H28.835V25Z" transform="translate(-25.776)"/><path class="b" d="M35.992,25H36.5V40.3h-.506V25Z" transform="translate(-30.784)"/><path class="b" d="M39.148,25h.906V40.3h-.906V25Z" transform="translate(-32.993)"/><path class="b" d="M45.078,25h.506V40.3h-.506V25Z" transform="translate(-37.142)"/><path class="b" d="M47.5,25h.39V40.3H47.5V25Z" transform="translate(-38.836)"/><path class="b" d="M24.7,25H25.2V40.3H24.7V25Z" transform="translate(-22.88)"/><path class="b" d="M20.977,25h.906V40.3h-.906V25Z" transform="translate(-20.277)"/><path class="b" d="M50.936,25h.906V40.3h-.906V25Z" transform="translate(-41.241)"/><path class="b" d="M56.865,25h.506V40.3h-.506V25Z" transform="translate(-45.39)"/><path class="b" d="M59.285,25h.39V40.3h-.39V25Z" transform="translate(-47.084)"/><path class="b" d="M65.46,25h.506V40.3H65.46V25Z" transform="translate(-51.405)"/><path class="b" d="M61.741,25h.906V40.3h-.906V25Z" transform="translate(-48.802)"/><path class="b" d="M69.388,25h.506V40.3h-.506V25Z" transform="translate(-54.154)"/><path class="b" d="M71.809,25h.39V40.3h-.39V25Z" transform="translate(-55.848)"/><path class="b" d="M77.983,25h.506V40.3h-.506V25Z" transform="translate(-60.168)"/><path class="b" d="M74.264,25h.906V40.3h-.906V25Z" transform="translate(-57.566)"/><path class="b" d="M81.14,25h1.634V40.3H81.14V25Z" transform="translate(-62.377)"/><path class="b" d="M88.3,25H88.8V40.3H88.3V25Z" transform="translate(-67.386)"/><path class="b" d="M91.454,25h.906V40.3h-.906V25Z" transform="translate(-69.595)"/><path class="b" d="M97.383,25h.506V40.3h-.506V25Z" transform="translate(-73.744)"/><path class="b" d="M99.8,25h.39V40.3H99.8V25Z" transform="translate(-75.437)"/><path class="b" d="M103.241,25h.906V40.3h-.906V25Z" transform="translate(-77.843)"/><path class="c" d="M-1.843,56.088H29.476V47.513H-1.843v8.575Z" transform="translate(-4.308 -15.754)"/><path class="d" d="M.123,56.9V49.138H3.034a3.612,3.612,0,0,1,1.427.234,1.832,1.832,0,0,1,.84.726,1.9,1.9,0,0,1,.305,1.024,1.765,1.765,0,0,1-.269.936,1.924,1.924,0,0,1-.813.71,2.015,2.015,0,0,1,1.082.7,1.876,1.876,0,0,1,.379,1.174,2.269,2.269,0,0,1-.231,1.015,1.965,1.965,0,0,1-.569.722,2.4,2.4,0,0,1-.849.383,5.161,5.161,0,0,1-1.253.13Zm1.029-4.5H2.83a3.76,3.76,0,0,0,.979-.09,1.085,1.085,0,0,0,.59-.388,1.121,1.121,0,0,0,.2-.679,1.239,1.239,0,0,0-.186-.681.933.933,0,0,0-.529-.4A4.418,4.418,0,0,0,2.7,50.048H1.152V52.4Zm0,3.586H3.085a4.391,4.391,0,0,0,.7-.038,1.661,1.661,0,0,0,.592-.211,1.132,1.132,0,0,0,.392-.433,1.353,1.353,0,0,0,.154-.656,1.287,1.287,0,0,0-.224-.757,1.168,1.168,0,0,0-.618-.452,3.8,3.8,0,0,0-1.134-.13h-1.8v2.676Z" transform="translate(-5.684 -16.891)"/><path class="d" d="M22.751,58.781a2.886,2.886,0,0,1,.869-2.308,2.618,2.618,0,0,1,1.768-.623,2.526,2.526,0,0,1,1.894.759,2.879,2.879,0,0,1,.735,2.093,3.7,3.7,0,0,1-.325,1.7,2.3,2.3,0,0,1-.948.964,2.751,2.751,0,0,1-1.356.343,2.529,2.529,0,0,1-1.909-.755,3.012,3.012,0,0,1-.728-2.176Zm.975,0A2.38,2.38,0,0,0,24.2,60.4a1.579,1.579,0,0,0,2.373,0,2.441,2.441,0,0,0,.471-1.642,2.307,2.307,0,0,0-.475-1.575,1.58,1.58,0,0,0-2.369,0,2.372,2.372,0,0,0-.471,1.609Z" transform="translate(-21.519 -21.588)"/><path class="d" d="M43.942,56.9V49.138H44.9V56.9Z" transform="translate(-36.347 -16.891)"/><path class="d" d="M55.135,59.773l.986.13a2.388,2.388,0,0,1-.86,1.335,2.593,2.593,0,0,1-1.606.475,2.562,2.562,0,0,1-1.95-.758,2.959,2.959,0,0,1-.721-2.125,3.1,3.1,0,0,1,.728-2.2A2.465,2.465,0,0,1,53.6,55.85a2.393,2.393,0,0,1,1.837.766,3.048,3.048,0,0,1,.713,2.156c0,.056,0,.141-.005.253H51.96a2.157,2.157,0,0,0,.524,1.416,1.556,1.556,0,0,0,1.172.491,1.445,1.445,0,0,0,.892-.276,1.832,1.832,0,0,0,.587-.883Zm-3.121-1.528h3.131a1.906,1.906,0,0,0-.359-1.064,1.455,1.455,0,0,0-1.178-.551,1.51,1.51,0,0,0-1.1.439,1.749,1.749,0,0,0-.493,1.176Z" transform="translate(-41.276 -21.588)"/><path class="d" d="M72.91,56.445l.13.842a3.561,3.561,0,0,1-.717.085,1.622,1.622,0,0,1-.8-.164.922.922,0,0,1-.4-.432A3.428,3.428,0,0,1,71,55.648v-3.24h-.7v-.737H71v-1.39l.954-.573v1.963h.954v.737h-.954V55.7a1.645,1.645,0,0,0,.05.525.394.394,0,0,0,.163.186.637.637,0,0,0,.325.069,3,3,0,0,0,.416-.038Z" transform="translate(-54.791 -17.291)"/><path class="d" d="M80.94,58.781a2.885,2.885,0,0,1,.869-2.308,2.618,2.618,0,0,1,1.768-.623,2.525,2.525,0,0,1,1.894.759,2.879,2.879,0,0,1,.735,2.093,3.708,3.708,0,0,1-.325,1.7,2.3,2.3,0,0,1-.948.964,2.752,2.752,0,0,1-1.356.343,2.529,2.529,0,0,1-1.909-.755,3.012,3.012,0,0,1-.728-2.176Zm.975,0a2.378,2.378,0,0,0,.471,1.613,1.579,1.579,0,0,0,2.373,0,2.44,2.44,0,0,0,.471-1.642,2.305,2.305,0,0,0-.475-1.575,1.58,1.58,0,0,0-2.369,0,2.371,2.371,0,0,0-.471,1.609Z" transform="translate(-62.237 -21.588)"/></g></g></svg>