<svg xmlns="http://www.w3.org/2000/svg" width="48" height="32" viewBox="0 0 48 32"><defs><style>.a{fill:#fff;stroke:#c1c4cc;}.b{fill:#ff5f00;}.b,.c,.d,.e{fill-rule:evenodd;}.c{fill:#eb001b;}.d{fill:#f79e1b;}</style></defs><g transform="translate(-620.5 -567.735)"><rect class="a" width="47" height="31" rx="2" transform="translate(621 568.235)"/><path class="b" d="M28.014,19.756h8V5.383h-8Z" transform="translate(612.508 568.797)"/><path class="c" d="M11.392,9.467a9.125,9.125,0,0,1,3.491-7.187,9.141,9.141,0,1,0,0,14.373,9.125,9.125,0,0,1-3.491-7.186" transform="translate(629.639 571.899)"/><path class="d" d="M74.668,38.072v-.355h-.093l-.106.244-.107-.244h-.093v.355h.066V37.8l.1.231H74.5l.1-.231v.268Zm-.587,0v-.294H74.2v-.06h-.3v.06h.119v.294Z" transform="translate(584.357 548.959)"/><path class="d" d="M53.15,9.467a9.141,9.141,0,0,1-14.789,7.186,9.142,9.142,0,0,0,0-14.373A9.141,9.141,0,0,1,53.15,9.467" transform="translate(606.16 571.899)"/><path class="e" d="M4.776,3.34v-1.5A.874.874,0,0,0,3.835.9a.975.975,0,0,0-.842.424A.865.865,0,0,0,2.2.9a.8.8,0,0,0-.693.349v-.3H.988V3.34h.52V2.019c0-.424.223-.623.57-.623s.52.224.52.623V3.34h.52V2.019a.55.55,0,0,1,.57-.623c.347,0,.52.224.52.623V3.34Zm7.7-2.393h-.842V.224h-.52V.947h-.47v.474h.47v1.1c0,.549.223.873.817.873a1.378,1.378,0,0,0,.644-.175l-.149-.449a.811.811,0,0,1-.446.125c-.248,0-.347-.15-.347-.4V1.421h.842ZM16.886.9a.7.7,0,0,0-.619.349v-.3h-.52V3.34h.52V1.994c0-.4.173-.623.5-.623a1.441,1.441,0,0,1,.322.05l.149-.5A1.624,1.624,0,0,0,16.886.9Zm-6.661.249A1.691,1.691,0,0,0,9.259.9c-.594,0-.991.3-.991.773,0,.4.3.623.817.7l.248.025c.272.05.421.125.421.249,0,.174-.2.3-.545.3a1.361,1.361,0,0,1-.792-.249l-.248.4a1.743,1.743,0,0,0,1.015.3c.693,0,1.09-.324,1.09-.773,0-.424-.322-.648-.817-.723L9.209,1.87c-.223-.025-.4-.075-.4-.224,0-.174.173-.274.446-.274a1.776,1.776,0,0,1,.743.2ZM24.042.9a.7.7,0,0,0-.619.349v-.3H22.9V3.34h.52V1.994c0-.4.173-.623.5-.623a1.441,1.441,0,0,1,.322.05l.149-.5A1.624,1.624,0,0,0,24.042.9ZM17.406,2.144A1.193,1.193,0,0,0,18.669,3.39a1.227,1.227,0,0,0,.842-.274l-.248-.424a1,1,0,0,1-.619.224.706.706,0,0,1-.718-.773.733.733,0,0,1,.718-.773,1,1,0,0,1,.619.224l.248-.424A1.227,1.227,0,0,0,18.669.9a1.193,1.193,0,0,0-1.263,1.246Zm4.8,0V.947h-.52v.3A.892.892,0,0,0,20.947.9a1.19,1.19,0,0,0-1.189,1.246A1.19,1.19,0,0,0,20.947,3.39a.831.831,0,0,0,.743-.349v.3h.52Zm-1.907,0a.72.72,0,1,1,1.436,0,.72.72,0,1,1-1.436,0ZM14.087.9A1.162,1.162,0,0,0,12.9,2.144,1.167,1.167,0,0,0,14.112,3.39a1.508,1.508,0,0,0,.966-.324l-.248-.374a1.178,1.178,0,0,1-.693.249.669.669,0,0,1-.718-.573h1.758v-.2A1.1,1.1,0,0,0,14.087.9Zm0,.449a.581.581,0,0,1,.594.573H13.444a.629.629,0,0,1,.644-.573Zm12.9.8V0h-.52V1.246A.892.892,0,0,0,25.726.9a1.19,1.19,0,0,0-1.189,1.246A1.19,1.19,0,0,0,25.726,3.39a.831.831,0,0,0,.743-.349v.3h.52Zm-1.907,0a.72.72,0,1,1,1.436,0,.72.72,0,1,1-1.436,0ZM7.7,2.144V.947h-.52v.3A.892.892,0,0,0,6.436.9,1.19,1.19,0,0,0,5.247,2.144,1.19,1.19,0,0,0,6.436,3.39a.831.831,0,0,0,.743-.349v.3H7.7Zm-1.932,0a.72.72,0,1,1,1.436,0,.72.72,0,1,1-1.436,0Z" transform="translate(630.637 591.809)"/><path class="e" d="M69.929,8.151V8.2h.043A.042.042,0,0,0,70,8.192a.022.022,0,0,0,0-.035.042.042,0,0,0-.023-.006Zm.043-.033a.078.078,0,0,1,.051.015.051.051,0,0,1,.018.041.049.049,0,0,1-.014.036.069.069,0,0,1-.041.017l.057.067H70l-.052-.066h-.017v.066h-.037V8.118Zm-.011.237a.136.136,0,0,0,.056-.012.15.15,0,0,0,.046-.032.147.147,0,0,0,.031-.047.155.155,0,0,0,0-.115.147.147,0,0,0-.031-.047.15.15,0,0,0-.046-.031.139.139,0,0,0-.056-.011.144.144,0,0,0-.057.011.149.149,0,0,0,0,.273A.141.141,0,0,0,69.961,8.355Zm0-.338a.184.184,0,0,1,.074.015.191.191,0,0,1,.06.041.193.193,0,0,1,.041.06.19.19,0,0,1,0,.148.194.194,0,0,1-.041.06.2.2,0,0,1-.06.041.184.184,0,0,1-.074.015.189.189,0,0,1-.075-.015.191.191,0,0,1-.1-.1.19.19,0,0,1,0-.148.192.192,0,0,1,.04-.06.189.189,0,0,1,.135-.056Z" transform="translate(588.436 586.891)"/></g></svg>