<svg xmlns="http://www.w3.org/2000/svg" width="64" height="64" viewBox="0 0 64 64"><defs><style>.a{fill:#f6d655;}.b{fill:#fff;stroke:#fff;stroke-width:0.2px;}</style></defs><g transform="translate(-1881 741)"><circle class="a" cx="32" cy="32" r="32" transform="translate(1881 -741)"/><g transform="translate(1898 -724)"><path class="b" d="M27.989,10.822V6.46L23.6,4.266,19.335,0,15.049,1.071,10.763,0,6.5,4.266,2.108,6.46v4.362L0,15.039l2.108,4.217v4.362L6.5,25.811l4.266,4.266,4.286-1.071,4.286,1.071L23.6,25.811l4.388-2.194V19.256L30.1,15.039ZM26,18.786v3.6L22.566,24.1l-3.84,3.769-3.677-.92-3.677.92L7.788,24.288,4.1,22.385v-3.6L2.226,15.039,4.1,11.292v-3.6L7.531,5.975,11.374,2.2l3.677.92,3.677-.92,3.584,3.584L26,7.691v3.6l1.869,3.747Z"/><rect class="b" width="16.892" height="1.991" transform="translate(8.372 20.308) rotate(-45)"/><path class="b" d="M7.045,10.027A2.986,2.986,0,1,0,4.059,7.04,2.99,2.99,0,0,0,7.045,10.027Zm0-3.982a1,1,0,1,1-1,1A1,1,0,0,1,7.045,6.045Z" transform="translate(4.022 4.017)"/><path class="b" d="M11.045,8.054a2.986,2.986,0,1,0,2.986,2.986A2.99,2.99,0,0,0,11.045,8.054Zm0,3.982a1,1,0,1,1,1-1A1,1,0,0,1,11.045,12.036Z" transform="translate(7.985 7.98)"/></g></g></svg>