<svg xmlns="http://www.w3.org/2000/svg" width="29.031" height="29.17" viewBox="0 0 29.031 29.17"><defs><style>.a{fill:#48494c;}</style></defs><path class="a" d="M21.223,17.48c-.361-.181-2.137-1.054-2.467-1.175s-.572-.18-.814.182S17.009,17.661,16.8,17.9s-.422.271-.783.091a9.916,9.916,0,0,1-2.9-1.793A10.872,10.872,0,0,1,11.1,13.7c-.21-.361-.022-.557.158-.737.163-.162.362-.422.542-.632a2.491,2.491,0,0,0,.362-.6.662.662,0,0,0-.03-.632c-.091-.181-.813-1.959-1.113-2.682-.294-.7-.592-.608-.813-.62s-.451-.012-.693-.012a1.323,1.323,0,0,0-.963.452,4.05,4.05,0,0,0-1.264,3.013A7.038,7.038,0,0,0,8.763,14.98a16.111,16.111,0,0,0,6.171,5.453,20.417,20.417,0,0,0,2.059.76,4.927,4.927,0,0,0,2.274.143A3.72,3.72,0,0,0,21.7,19.619a3,3,0,0,0,.21-1.717c-.09-.151-.331-.241-.693-.422m-6.589,9h0A12,12,0,0,1,8.513,24.8l-.438-.26L3.528,25.736,4.741,21.3l-.286-.455a12.014,12.014,0,1,1,10.178,5.63M24.858,4.239a14.457,14.457,0,0,0-22.75,17.44L.057,29.169l7.663-2.01a14.441,14.441,0,0,0,6.907,1.76h.006A14.46,14.46,0,0,0,24.858,4.239Z" transform="translate(-0.057 0)"/></svg>