<svg xmlns="http://www.w3.org/2000/svg" width="29.17" height="29.169" viewBox="0 0 29.17 29.169"><defs><style>.a{fill:#48494c;}</style></defs><path class="a" d="M24.851,24.857h-4.32V18.089c0-1.614-.033-3.691-2.251-3.691-2.252,0-2.6,1.756-2.6,3.572v6.888h-4.32V10.939h4.149v1.9h.056a4.552,4.552,0,0,1,4.1-2.248c4.377,0,5.186,2.88,5.186,6.63v7.64ZM6.487,9.034A2.509,2.509,0,1,1,9,6.524,2.506,2.506,0,0,1,6.487,9.034ZM8.652,24.857H4.321V10.939H8.652ZM27.012,0H2.152A2.127,2.127,0,0,0,0,2.1V27.068a2.126,2.126,0,0,0,2.152,2.1H27.009a2.134,2.134,0,0,0,2.161-2.1V2.1A2.135,2.135,0,0,0,27.009,0Z"/></svg>