<svg xmlns="http://www.w3.org/2000/svg" width="29.17" height="29.169" viewBox="0 0 29.17 29.169"><defs><style>.a{fill:#48494c;}</style></defs><path class="a" d="M14.585,0c-3.962,0-4.457.018-6.013.088a10.754,10.754,0,0,0-3.54.678A7.142,7.142,0,0,0,2.448,2.448,7.116,7.116,0,0,0,.766,5.032a10.723,10.723,0,0,0-.678,3.54C.015,10.128,0,10.623,0,14.585S.018,19.042.088,20.6a10.761,10.761,0,0,0,.678,3.54,7.152,7.152,0,0,0,1.682,2.584A7.132,7.132,0,0,0,5.032,28.4a10.768,10.768,0,0,0,3.54.678c1.556.073,2.05.088,6.013.088s4.457-.018,6.013-.088a10.793,10.793,0,0,0,3.54-.678A7.454,7.454,0,0,0,28.4,24.138a10.761,10.761,0,0,0,.678-3.54c.073-1.556.088-2.05.088-6.013s-.018-4.457-.088-6.013a10.786,10.786,0,0,0-.678-3.54,7.158,7.158,0,0,0-1.682-2.584A7.106,7.106,0,0,0,24.138.766,10.73,10.73,0,0,0,20.6.088C19.042.015,18.547,0,14.585,0Zm0,2.625c3.893,0,4.357.019,5.895.086a8.036,8.036,0,0,1,2.707.5,4.8,4.8,0,0,1,2.769,2.767,8.052,8.052,0,0,1,.5,2.707c.069,1.539.085,2,.085,5.895s-.018,4.357-.09,5.895a8.208,8.208,0,0,1-.512,2.707,4.631,4.631,0,0,1-1.093,1.68,4.55,4.55,0,0,1-1.677,1.089,8.112,8.112,0,0,1-2.716.5c-1.548.069-2,.085-5.906.085s-4.358-.018-5.906-.09a8.27,8.27,0,0,1-2.718-.512,4.517,4.517,0,0,1-1.676-1.093A4.429,4.429,0,0,1,3.155,23.17a8.277,8.277,0,0,1-.51-2.716c-.055-1.531-.074-2-.074-5.887s.019-4.358.074-5.908a8.268,8.268,0,0,1,.51-2.715A4.323,4.323,0,0,1,4.249,4.265,4.314,4.314,0,0,1,5.925,3.173a8.072,8.072,0,0,1,2.7-.512c1.55-.055,2.005-.073,5.906-.073l.055.036Zm0,4.47a7.489,7.489,0,1,0,7.489,7.489A7.489,7.489,0,0,0,14.585,7.1Zm0,12.351a4.862,4.862,0,1,1,4.862-4.862A4.86,4.86,0,0,1,14.585,19.446ZM24.121,6.8a1.75,1.75,0,1,1-1.75-1.749A1.751,1.751,0,0,1,24.121,6.8Z"/></svg>