<svg xmlns="http://www.w3.org/2000/svg" width="35.889" height="29.169" viewBox="0 0 35.889 29.169"><defs><style>.a{fill:#48494c;}</style></defs><path class="a" d="M35.818,5.721A14.954,14.954,0,0,1,31.594,6.88a7.414,7.414,0,0,0,3.234-4.072,15.2,15.2,0,0,1-4.676,1.771,7.357,7.357,0,0,0-12.537,6.7A20.842,20.842,0,0,1,2.452,3.616a7.211,7.211,0,0,0-1,3.7,7.358,7.358,0,0,0,3.272,6.125A7.333,7.333,0,0,1,1.4,12.52v.09a7.362,7.362,0,0,0,5.9,7.218,7.471,7.471,0,0,1-3.308.127,7.381,7.381,0,0,0,6.885,5.11A14.755,14.755,0,0,1,1.75,28.213a15.617,15.617,0,0,1-1.75-.1,20.928,20.928,0,0,0,11.3,3.3c13.537,0,20.932-11.209,20.932-20.913,0-.314,0-.628-.022-.942a14.856,14.856,0,0,0,3.679-3.81Z" transform="translate(0 -2.246)"/></svg>