<svg xmlns="http://www.w3.org/2000/svg" width="29.17" height="29.169" viewBox="0 0 29.17 29.169"><defs><style>.a{fill:#48494c;}</style></defs><path class="a" d="M14.585,0A14.585,14.585,0,1,0,29.17,14.585,14.628,14.628,0,0,0,14.585,0Zm6.71,21.075a.869.869,0,0,1-1.241.292c-3.427-2.115-7.73-2.554-12.836-1.387a.9.9,0,1,1-.436-1.749c5.542-1.241,10.355-.729,14.147,1.6a.876.876,0,0,1,.366,1.24Zm1.75-4.011a1.1,1.1,0,0,1-1.534.365A18.9,18.9,0,0,0,7,15.752a1.108,1.108,0,0,1-.656-2.116,21.344,21.344,0,0,1,16.408,1.97,1.03,1.03,0,0,1,.293,1.458Zm.146-4.084C18.523,10.209,10.72,9.918,6.271,11.3a1.339,1.339,0,0,1-.8-2.555c5.178-1.531,13.71-1.24,19.107,1.97a1.41,1.41,0,0,1,.509,1.9,1.526,1.526,0,0,1-1.895.365Z"/></svg>