<svg xmlns="http://www.w3.org/2000/svg" width="64" height="64" viewBox="0 0 64 64"><defs><style>.a{fill:#f96369;}.b{fill:#fff;stroke:#fff;stroke-width:0.7px;}</style></defs><g transform="translate(-1959 741)"><circle class="a" cx="32" cy="32" r="32" transform="translate(1959 -741)"/><g transform="translate(1976.006 -723.994)"><path class="b" d="M28.18,13.148a1.879,1.879,0,0,0-1.818,1.409h-2.41a8.892,8.892,0,0,0-2.283-5.5l1.717-1.717a1.879,1.879,0,1,0-.665-.665L20.993,8.4a8.892,8.892,0,0,0-5.5-2.283V3.692a1.879,1.879,0,1,0-.939,0V6.114A8.892,8.892,0,0,0,9.061,8.4L7.345,6.68a1.879,1.879,0,1,0-.665.665L8.4,9.061a8.892,8.892,0,0,0-2.283,5.5H3.692a1.879,1.879,0,1,0,0,.939H6.114a8.892,8.892,0,0,0,2.283,5.5L6.68,22.71a1.879,1.879,0,1,0,.665.665l1.717-1.717a8.892,8.892,0,0,0,5.5,2.295v2.422a1.879,1.879,0,1,0,.939,0V23.952a8.892,8.892,0,0,0,5.5-2.283l1.717,1.717a1.879,1.879,0,1,0,.665-.665l-1.717-1.729a8.892,8.892,0,0,0,2.295-5.5h2.422a1.879,1.879,0,1,0,1.806-2.349ZM23.663,5.062a.939.939,0,1,1-.275.665.939.939,0,0,1,.275-.665ZM14.088,1.874a.939.939,0,1,1,.939.939A.939.939,0,0,1,14.088,1.874ZM5.062,6.391a.94.94,0,1,1,1.329,0A.94.94,0,0,1,5.062,6.391ZM1.874,15.967a.939.939,0,1,1,.939-.939A.939.939,0,0,1,1.874,15.967Zm4.517,9.026a.94.94,0,1,1,0-1.329.94.94,0,0,1,0,1.329Zm9.576,3.187a.939.939,0,1,1-.939-.939A.939.939,0,0,1,15.967,28.18Zm9.026-4.517a.94.94,0,1,1-1.329,0A.94.94,0,0,1,24.993,23.663Zm-9.966-.651a7.986,7.986,0,1,1,7.986-7.986,7.986,7.986,0,0,1-7.986,7.986ZM28.18,15.967a.939.939,0,1,1,.939-.939A.939.939,0,0,1,28.18,15.967Z"/><path class="b" d="M38.55,56.545a1.879,1.879,0,1,0,1.329-.551A1.879,1.879,0,0,0,38.55,56.545Zm1.994,1.994a.939.939,0,1,1,.276-.665A.939.939,0,0,1,40.544,58.539Z" transform="translate(-29.08 -42.847)"/><path class="b" d="M56.55,38.545a1.879,1.879,0,1,0,1.329-.551,1.879,1.879,0,0,0-1.329.551Zm1.994,1.994a.939.939,0,1,1,.276-.665A.939.939,0,0,1,58.544,40.539Z" transform="translate(-42.852 -29.075)"/><path class="b" d="M74.55,56.545a1.879,1.879,0,1,0,1.329-.551,1.879,1.879,0,0,0-1.329.551Zm1.994,1.994a.939.939,0,1,1,.276-.665A.939.939,0,0,1,76.544,58.539Z" transform="translate(-56.624 -42.847)"/><path class="b" d="M56.55,74.545a1.879,1.879,0,1,0,1.329-.551,1.879,1.879,0,0,0-1.329.551Zm1.994,1.994a.939.939,0,1,1,.276-.665A.939.939,0,0,1,58.544,76.539Z" transform="translate(-42.852 -56.619)"/></g></g></svg>